<svg width="20" height="20" viewBox="0 0 20 20" fill="none" xmlns="http://www.w3.org/2000/svg">
<path d="M9.07088 1.07328C9.41462 0.256822 10.5854 0.256823 10.9291 1.07328L12.9579 5.89217C13.1029 6.23637 13.4306 6.47155 13.8067 6.50134L19.0727 6.91842C19.9649 6.98908 20.3267 8.08907 19.6469 8.66434L15.6348 12.0596C15.3482 12.3022 15.223 12.6827 15.3106 13.0453L16.5363 18.1219C16.744 18.982 15.7969 19.6619 15.033 19.201L10.5245 16.4805C10.2025 16.2862 9.7975 16.2862 9.47548 16.4805L4.96699 19.201C4.20311 19.6619 3.25596 18.982 3.46363 18.1219L4.68942 13.0453C4.77698 12.6827 4.65182 12.3022 4.36526 12.0596L0.353062 8.66434C-0.326718 8.08907 0.0350679 6.98908 0.927291 6.91842L6.19336 6.50134C6.5695 6.47155 6.89716 6.23637 7.04207 5.89217L9.07088 1.07328Z" fill="#FFE492"/>
</svg>
