<svg width="431" height="59" viewBox="0 0 431 59" fill="none" xmlns="http://www.w3.org/2000/svg">
<path d="M410.288 12.3932C409.808 12.4123 409.322 12.4254 408.852 12.4539C408.546 12.4718 408.415 12.4194 408.211 12.392C408.143 12.3825 408.071 12.3635 408.008 12.3658C407.532 12.3849 407.057 12.4063 406.581 12.4277C406.436 12.4742 406.343 12.5361 406.12 12.5587C405.902 12.5801 405.645 12.5801 405.402 12.5908C405.082 12.6039 404.762 12.617 404.442 12.6289C404.281 12.6349 404.151 12.6575 404.097 12.7004C404.087 12.7075 404.194 12.7254 404.252 12.7361C404.446 12.7718 404.636 12.8123 404.849 12.8396C405.053 12.8658 405.305 12.823 405.524 12.8563C406.014 12.9313 406.018 12.9301 406.392 12.9158C406.712 12.9027 407.032 12.8885 407.353 12.8789C407.416 12.8766 407.488 12.8944 407.556 12.9039C407.76 12.9301 407.891 12.9896 408.192 12.967C408.42 12.9492 408.672 12.9456 408.91 12.9361C409.109 12.9706 409.293 13.0099 409.507 13.0373C409.706 13.0635 409.764 13.0837 409.657 13.1182C409.56 13.1504 409.424 13.1635 409.245 13.1658C409.085 13.167 408.925 13.1777 408.764 13.1837C408.682 13.1873 408.604 13.1896 408.527 13.1932C408.221 13.2063 408.221 13.2063 407.663 13.1301C407.445 13.1004 407.197 13.142 406.989 13.1135C406.848 13.0944 406.727 13.0658 406.591 13.0456C406.533 13.0373 406.44 13.0361 406.368 13.0385C406.125 13.0468 405.883 13.0527 405.65 13.0682C405.485 13.0789 405.388 13.1123 405.407 13.1456C405.412 13.1587 405.528 13.1777 405.596 13.1789C405.751 13.1813 405.916 13.1646 406.067 13.173C406.212 13.1813 406.363 13.2051 406.47 13.2313C406.688 13.2861 406.935 13.2373 407.144 13.2516C407.362 13.267 407.542 13.3146 407.75 13.3432C407.804 13.3504 407.906 13.3384 407.988 13.3349C408.226 13.3265 408.464 13.3194 408.701 13.3111C408.9 13.3456 409.114 13.3766 409.293 13.4158C409.618 13.4873 409.968 13.5146 410.39 13.4801C410.628 13.4611 410.86 13.4682 411.05 13.5146C411.244 13.5623 411.467 13.5575 411.714 13.548C411.942 13.5385 412.175 13.5123 412.408 13.5456C412.913 13.6194 412.918 13.623 413.514 13.5944C413.694 13.5861 413.83 13.5837 413.965 13.6111C414.092 13.6361 414.228 13.6575 414.359 13.6813C414.596 13.673 414.839 13.6646 415.077 13.6551C415.382 13.642 415.552 13.6587 415.625 13.7254C415.668 13.7658 415.688 13.8027 415.795 13.8301C415.921 13.8634 416.057 13.8622 416.241 13.8527C416.416 13.8444 416.542 13.8313 416.615 13.7885C416.644 13.7706 416.702 13.7539 416.755 13.7396C416.799 13.7289 416.867 13.7123 416.906 13.7146C416.978 13.7194 417.075 13.7325 417.1 13.748C417.337 13.892 417.337 13.8932 417.58 13.9349C417.847 13.9813 418.123 14.023 418.366 14.0753C418.584 14.1218 418.803 14.1015 419.04 14.1015C419.22 14.1015 419.336 14.1325 419.322 14.1634C419.312 14.1813 419.244 14.2075 419.186 14.2099C418.71 14.2337 418.23 14.2539 417.75 14.2706C417.692 14.273 417.619 14.2515 417.551 14.2408C417.415 14.2194 417.294 14.1861 417.148 14.1789C417.003 14.1718 416.833 14.1896 416.673 14.1956C416.513 14.2015 416.343 14.217 416.197 14.2075C416.052 14.198 415.935 14.1634 415.799 14.1408C415.736 14.1301 415.649 14.1146 415.596 14.1182C415.242 14.1468 414.98 14.1075 414.727 14.0551C414.674 14.0444 414.582 14.0373 414.514 14.0396C413.951 14.0599 413.393 14.0837 412.83 14.1063C412.602 14.1158 412.418 14.0742 412.369 14.0039C412.345 13.9646 412.297 13.9253 412.297 13.8861C412.297 13.8146 412.03 13.7754 411.836 13.7837C411.515 13.7956 411.19 13.8051 410.875 13.823C410.618 13.8372 410.399 13.823 410.225 13.7801C410.021 13.7313 409.788 13.7408 409.555 13.7539C409.381 13.7634 409.332 13.8027 409.342 13.9015C409.351 13.9813 409.269 14.0063 408.954 14.0194C408.556 14.0361 408.153 14.0527 407.75 14.0658C407.687 14.0682 407.615 14.048 407.552 14.0373C407.416 14.0158 407.294 13.9813 407.149 13.9742C407.003 13.9658 406.833 13.9837 406.673 13.9908C406.513 13.9968 406.343 14.0134 406.198 14.0051C406.052 13.9968 405.931 13.9611 405.8 13.9384C405.737 13.9277 405.659 13.9123 405.596 13.9146C405.276 13.9242 404.956 13.9384 404.636 13.9515C404.277 13.9658 404.277 13.9658 403.767 13.892C403.534 13.8587 403.301 13.8849 403.073 13.8944C402.831 13.9039 402.603 13.9087 402.413 13.8611C402.287 13.8301 402.147 13.8111 401.996 13.817C401.594 13.8313 401.196 13.8492 400.793 13.8635C400.725 13.8658 400.633 13.8599 400.58 13.8492C400.323 13.7992 400.07 13.7599 399.711 13.7849C399.401 13.8063 399.066 13.8075 398.755 13.8277C398.586 13.8384 398.508 13.8765 398.542 13.9063C398.561 13.9218 398.663 13.9396 398.731 13.9396C398.886 13.9408 399.056 13.923 399.202 13.9301C399.503 13.9444 399.653 14.0444 400.046 14.017C400.279 14.0003 400.521 13.9944 400.764 13.9896C400.827 13.9884 400.895 14.0111 400.963 14.023C401.157 14.0551 401.327 14.0968 401.608 14.0753C401.841 14.0587 402.088 14.0539 402.326 14.0444C402.705 14.0289 402.705 14.0301 403.195 14.1027C403.428 14.1373 403.66 14.1099 403.888 14.1015C404.058 14.0956 404.218 14.0837 404.354 14.1004C404.563 14.1254 404.713 14.1825 404.97 14.1789C405.213 14.1753 405.451 14.1587 405.693 14.1527C405.844 14.1492 405.984 14.1682 406.106 14.2003C406.232 14.2325 406.368 14.2468 406.533 14.2396C406.77 14.2301 407.013 14.2182 407.255 14.2122C407.323 14.2111 407.401 14.2218 407.464 14.2313C407.6 14.2527 407.731 14.2777 407.862 14.3003C408.1 14.2932 408.342 14.2908 408.575 14.2765C408.755 14.2658 408.881 14.2706 409.026 14.2944C409.211 14.3265 409.361 14.3837 409.662 14.3563C409.812 14.3432 409.987 14.3468 410.138 14.3349C410.322 14.3194 410.448 14.3253 410.579 14.3611C410.826 14.4289 411.137 14.4301 411.457 14.4039C411.807 14.3753 412.069 14.4087 412.331 14.4611C412.607 14.5158 412.607 14.5146 412.821 14.6468C412.884 14.6849 413.063 14.7027 413.213 14.6956C413.466 14.6837 413.684 14.6896 413.868 14.7349C414.063 14.7837 414.295 14.7777 414.533 14.7646C414.848 14.7468 415.164 14.7313 415.421 14.8003C415.547 14.8337 415.683 14.842 415.853 14.8337C416.333 14.8122 416.818 14.7992 417.289 14.773C417.575 14.7563 417.74 14.7944 417.934 14.8265C418.196 14.8706 418.482 14.9099 418.482 15.0039C418.482 15.0194 418.55 15.0372 418.609 15.0491C418.735 15.0741 418.871 15.0956 419.002 15.1194C419.196 15.1551 419.385 15.1849 419.652 15.1658C419.885 15.1503 420.132 15.1456 420.37 15.1349C420.607 15.1241 420.826 15.1182 421.039 15.1634C421.287 15.2146 421.549 15.2634 421.83 15.3015C422.029 15.3289 422.291 15.2825 422.505 15.3194C422.636 15.342 422.762 15.3682 422.902 15.3872C422.961 15.3956 423.053 15.3896 423.13 15.3872C423.291 15.3825 423.456 15.3789 423.611 15.367C423.79 15.3539 423.926 15.3563 424.062 15.3837C424.188 15.4087 424.314 15.4432 424.46 15.4503C424.678 15.461 424.921 15.4134 425.139 15.4682C425.251 15.4956 425.391 15.5218 425.537 15.5301C425.682 15.5384 425.852 15.5206 426.008 15.5218C426.075 15.5218 426.158 15.5408 426.197 15.5563C426.221 15.5646 426.187 15.5872 426.153 15.5991C426.109 15.6134 426.046 15.6325 425.983 15.6349C425.503 15.6563 425.023 15.6741 424.542 15.6944C424.256 15.7063 424.256 15.7063 423.679 15.6313C423.543 15.6134 423.392 15.617 423.223 15.6253C422.995 15.636 422.762 15.6563 422.524 15.6349C422.214 15.5539 421.83 15.5468 421.423 15.5777C421.253 15.5908 421.098 15.5908 420.971 15.5682C420.705 15.5229 420.423 15.4813 420.185 15.4277C420.001 15.3861 419.914 15.3825 419.836 15.4396C419.812 15.4575 419.788 15.4765 419.792 15.4932C419.822 15.5527 419.875 15.611 419.904 15.6706C419.914 15.6872 419.875 15.7063 419.851 15.7241C419.773 15.7741 419.671 15.7706 419.501 15.7289C419.332 15.6872 419.128 15.6599 418.856 15.6789C418.623 15.6956 418.371 15.6932 418.138 15.7111C417.779 15.7372 417.527 15.6991 417.27 15.648C417.216 15.6372 417.124 15.6313 417.056 15.6337C416.333 15.661 415.615 15.692 414.892 15.7194C414.737 15.7253 414.596 15.7075 414.475 15.6753C414.349 15.6432 414.208 15.6265 414.053 15.6325C413.412 15.6575 412.772 15.6801 412.132 15.7111C411.87 15.7241 411.661 15.7087 411.481 15.667C411.346 15.636 411.219 15.6265 411.05 15.6301C410.865 15.6337 410.734 15.6456 410.642 15.6801C410.555 15.7134 410.618 15.7337 410.812 15.7598C411.02 15.7884 411.215 15.8253 411.413 15.8587C411.574 15.8539 411.734 15.8444 411.889 15.8456C411.957 15.8456 412.02 15.867 412.088 15.8789C412.282 15.9134 412.461 15.9479 412.738 15.9289C412.971 15.9122 413.218 15.9087 413.456 15.8979C413.786 15.8849 413.786 15.8849 414.32 15.9599C414.456 15.9789 414.601 15.9777 414.776 15.967C414.926 15.9587 415.081 15.9753 415.188 16.011C415.232 16.0253 415.217 16.0491 415.125 16.1277C415.125 16.186 415.227 16.1598 415.261 16.1218C415.314 16.067 415.212 16.0491 415.018 16.0789C414.882 16.1003 414.815 16.1313 414.849 16.1563C414.868 16.1694 414.96 16.186 415.125 16.1277C415.552 16.0563 415.877 16.0479 416.188 16.0289C416.372 16.0182 416.488 16.0229 416.634 16.0539C416.809 16.0908 416.983 16.1301 417.27 16.111C417.58 16.0896 417.91 16.0872 418.225 16.0694C418.516 16.0527 418.667 16.1051 418.851 16.136C419.074 16.1729 419.322 16.1313 419.526 16.1527C419.739 16.1741 419.889 16.2265 420.137 16.236C420.496 16.2039 420.724 16.2634 420.996 16.3027C421.209 16.3325 421.461 16.3063 421.689 16.2932C421.947 16.2789 422.16 16.292 422.34 16.3349C422.543 16.3837 422.771 16.3729 423.004 16.3622C423.548 16.3384 423.567 16.3348 423.882 16.4003C424.11 16.4479 424.329 16.4265 424.557 16.4206C424.756 16.4527 424.95 16.4872 425.158 16.5158C425.212 16.5229 425.314 16.511 425.396 16.5075C425.634 16.4979 425.876 16.4884 426.114 16.4789C426.274 16.4729 426.444 16.4551 426.59 16.4622C426.735 16.4706 426.857 16.5051 426.988 16.5277C427.119 16.5503 427.254 16.5729 427.381 16.5967C427.575 16.6325 427.759 16.6622 428.031 16.6444C428.264 16.6289 428.506 16.6241 428.749 16.6134C429.054 16.6003 429.045 16.6039 429.612 16.6753C429.918 16.7146 430.233 16.667 430.544 16.6622C430.699 16.6598 430.85 16.6729 430.956 16.7075C431 16.7218 430.985 16.7456 431 16.7658C430.199 16.7979 429.394 16.8253 428.603 16.8646C428.297 16.8801 428.137 16.8372 427.973 16.8015C427.701 16.7444 427.342 16.8277 427.085 16.7539C426.929 16.7098 426.706 16.6848 426.439 16.7063C426.284 16.7182 426.119 16.717 425.959 16.7277C425.551 16.7539 425.178 16.7551 424.853 16.6729C424.741 16.6444 424.581 16.6289 424.465 16.6015C424.329 16.5718 424.198 16.5551 424.038 16.561C423.315 16.5896 422.597 16.6182 421.879 16.6491C421.816 16.6515 421.753 16.6694 421.699 16.6825C421.563 16.7158 421.607 16.742 421.825 16.7634C421.898 16.7706 421.956 16.786 422.024 16.7979C422.155 16.8205 422.276 16.8563 422.422 16.8646C422.568 16.8729 422.737 16.8563 422.898 16.8503C423.058 16.8444 423.228 16.8265 423.373 16.8336C423.519 16.842 423.64 16.8765 423.776 16.8979C423.839 16.9087 423.916 16.9265 423.98 16.9253C424.3 16.9182 424.615 16.9051 424.935 16.8944C425.134 16.9265 425.304 16.9729 425.542 16.9836C425.692 16.9908 425.852 16.9777 426.008 16.9801C426.075 16.9813 426.163 16.9991 426.197 17.0146C426.216 17.0241 426.153 17.0479 426.105 17.0598C425.92 17.1051 425.668 17.0967 425.44 17.111C425.192 17.1265 424.969 17.1217 424.78 17.0753C424.654 17.0444 424.513 17.0277 424.358 17.0337C423.955 17.0491 423.557 17.067 423.155 17.0801C423.087 17.0825 423.004 17.0717 422.941 17.0634C422.432 16.9908 422.432 16.9884 422.073 17.0039C421.544 17.0265 421.544 17.0265 421.19 16.9634C421.122 16.9515 421.049 16.9289 420.991 16.9301C420.428 16.9491 419.87 16.9682 419.312 16.9955C419.128 17.0039 419.002 17.0039 418.866 16.9729C418.749 16.9467 418.613 16.917 418.468 16.9098C418.318 16.9027 418.153 16.9206 417.992 16.9265C417.832 16.9325 417.663 16.9479 417.522 16.9384C417.376 16.9289 417.25 16.8956 417.124 16.8717C416.993 16.8468 416.852 16.8479 416.673 16.8575C416.12 16.8848 416.115 16.8813 415.567 16.8075C415.504 16.7991 415.421 16.7896 415.353 16.792C414.95 16.8063 414.553 16.8241 414.15 16.8384C413.995 16.8444 413.844 16.8289 413.737 16.7944C413.694 16.7801 413.708 16.7563 413.679 16.7098C413.645 16.6991 413.684 16.7182 413.694 16.736C413.767 16.7337 413.854 16.736 413.907 16.7265C414.043 16.7039 414.111 16.6741 414.077 16.6491C414.058 16.636 413.966 16.6194 413.907 16.6194C413.801 16.6194 413.708 16.6455 413.679 16.7098C413.374 16.7491 413.048 16.7575 412.733 16.7765C412.549 16.7884 412.432 16.7825 412.287 16.7515C412.112 16.7134 411.933 16.6765 411.646 16.6955C411.336 16.717 411.006 16.7206 410.686 16.7372C410.317 16.7563 410.157 16.6491 409.846 16.6515C409.526 16.6539 409.206 16.6741 408.886 16.6884C408.604 16.7003 408.604 16.7003 408.022 16.6229C407.809 16.5944 407.556 16.636 407.348 16.6063C407.207 16.5872 407.086 16.5587 406.95 16.5384C406.892 16.5301 406.8 16.5301 406.727 16.5325C406.324 16.5467 405.917 16.5563 405.528 16.5825C405.087 16.6134 404.752 16.5801 404.437 16.5098C404.039 16.5229 403.636 16.5301 403.243 16.5527C402.957 16.5694 402.792 16.5301 402.598 16.4979C402.53 16.4872 402.472 16.4694 402.399 16.4646C402.326 16.4598 402.239 16.4694 402.161 16.4729C401.841 16.486 401.511 16.492 401.201 16.5134C400.817 16.5408 400.672 16.4432 400.376 16.4313C400.177 16.4896 400.07 16.5694 399.677 16.5753C399.357 16.5801 399.037 16.5991 398.717 16.6122C398.556 16.6182 398.396 16.6253 398.236 16.6313C397.979 16.642 397.858 16.6884 397.911 16.7598C397.94 16.7991 397.965 16.8384 397.989 16.8777C398.037 16.9479 397.916 17.0075 397.712 17.0158C397.149 17.0384 396.591 17.0622 396.029 17.0824C395.878 17.0884 395.733 17.0682 395.611 17.036C395.485 17.0039 395.345 16.9896 395.189 16.9955C394.626 17.0182 394.069 17.042 393.506 17.0622C393.443 17.0646 393.36 17.0527 393.297 17.0432C393.161 17.0217 393.03 16.9967 392.899 16.9741C392.579 16.9848 392.264 16.992 391.948 17.0063C391.439 17.0277 391.439 17.0289 391.065 16.9634C390.997 16.9515 390.93 16.9289 390.866 16.9301C390.624 16.9348 390.386 16.9467 390.144 16.9575C389.43 16.9884 389.43 16.9884 389.222 16.9527C389.032 16.9194 388.863 16.8789 388.576 16.8979C388.266 16.9194 387.936 16.9265 387.616 16.9384C387.378 16.9467 387.14 16.9563 386.903 16.9587C386.839 16.9598 386.772 16.9372 386.704 16.9253C386.51 16.8884 386.32 16.8586 386.053 16.8789C385.898 16.8908 385.733 16.8932 385.573 16.8991C385.156 16.9158 385.156 16.9158 384.472 16.8444C384.404 16.8372 384.321 16.8289 384.253 16.8325C383.691 16.8539 383.133 16.8777 382.57 16.8979C382.502 16.9003 382.42 16.8932 382.352 16.8872C381.585 16.8182 381.585 16.8182 380.77 16.8515C380.459 16.8634 380.45 16.8682 380.125 16.8051C379.979 16.7777 379.858 16.7646 379.688 16.7729C379.048 16.8015 378.402 16.8206 377.767 16.8539C377.481 16.8682 377.316 16.8325 377.121 16.8003C377.054 16.7896 376.981 16.7658 376.923 16.767C376.282 16.7896 375.642 16.817 375.001 16.8396C374.943 16.842 374.87 16.8182 374.802 16.8075C374.671 16.786 374.545 16.7539 374.4 16.7467C374.249 16.7396 374.084 16.7575 373.919 16.7634C373.517 16.7789 373.517 16.7777 373.051 16.7075C372.988 16.6979 372.905 16.6848 372.842 16.6872C372.202 16.711 371.557 16.7313 370.921 16.7658C370.557 16.7848 370.31 16.7503 370.052 16.7003C369.999 16.6896 369.907 16.6848 369.839 16.6872C369.116 16.7146 368.398 16.7456 367.675 16.7729C367.525 16.7789 367.379 16.7586 367.258 16.7277C367.064 16.6789 366.836 16.6848 366.593 16.6955C366.035 16.7205 366.03 16.7194 365.7 16.6622C365.633 16.6503 365.574 16.6348 365.502 16.6289C365.434 16.6229 365.346 16.6265 365.274 16.6289C364.953 16.6408 364.633 16.6539 364.313 16.667C363.993 16.6801 363.668 16.6872 363.352 16.7075C362.964 16.7325 362.78 16.6551 362.508 16.6194C362.11 16.6348 361.703 16.6444 361.31 16.6694C361.009 16.6884 360.868 16.636 360.669 16.6086C360.601 16.5991 360.529 16.5789 360.465 16.5813C359.743 16.6075 359.02 16.636 358.302 16.6682C358.127 16.6753 358.011 16.6658 357.865 16.6372C357.54 16.5729 357.525 16.5753 356.982 16.5991C356.744 16.6098 356.516 16.6194 356.312 16.5706C356.133 16.5265 355.915 16.5158 355.657 16.5301C355.342 16.5479 355.017 16.5575 354.697 16.5694C354.377 16.5825 354.056 16.6003 353.736 16.6063C353.479 16.6122 353.324 16.5563 353.12 16.5277C353.057 16.5194 352.97 16.5182 352.897 16.5206C352.577 16.5313 352.247 16.5396 351.936 16.5598C351.558 16.5848 351.349 16.5194 351.082 16.4813C351.024 16.4729 350.927 16.4777 350.854 16.4813C350.291 16.5027 349.733 16.5265 349.171 16.5491C348.972 16.517 348.768 16.486 348.569 16.4539C348.249 16.4658 347.929 16.4789 347.608 16.4908C347.366 16.5003 347.118 16.5039 346.89 16.5217C346.594 16.5456 346.449 16.4896 346.25 16.4622C346.182 16.4527 346.109 16.4325 346.046 16.4348C345.643 16.4479 345.241 16.4622 344.843 16.4825C344.464 16.5027 344.314 16.3956 344.004 16.3967C343.683 16.3979 343.353 16.4134 343.043 16.4348C342.684 16.4598 342.432 16.4217 342.174 16.3706C342.121 16.3598 342.029 16.3539 341.961 16.3563C341.558 16.3706 341.16 16.3884 340.758 16.4027C340.69 16.4051 340.607 16.3991 340.539 16.392C339.773 16.3218 339.773 16.3206 339.438 16.3349C339.2 16.3444 338.958 16.3563 338.715 16.3622C338.647 16.3646 338.565 16.3539 338.502 16.3444C337.997 16.2718 337.997 16.2706 337.633 16.2848C337.313 16.2979 336.993 16.311 336.673 16.3241C336.474 16.292 336.27 16.261 336.071 16.2289C335.673 16.2444 335.266 16.2563 334.873 16.2777C334.688 16.2872 334.567 16.2837 334.426 16.2539C334.252 16.2182 334.077 16.1765 333.786 16.1968C333.475 16.2182 333.145 16.2206 332.83 16.2384C332.452 16.2598 332.296 16.1515 331.991 16.1527C331.67 16.1539 331.341 16.1694 331.03 16.1908C330.671 16.2158 330.419 16.1777 330.162 16.1265C330.108 16.1158 330.016 16.1099 329.948 16.1122C329.065 16.1468 328.187 16.1813 327.304 16.2182C326.761 16.2408 326.761 16.242 325.727 16.1765C325.654 16.1717 325.577 16.167 325.504 16.1694C325.184 16.1801 324.854 16.1884 324.543 16.2087C324.165 16.2337 323.956 16.1694 323.689 16.1301C323.631 16.1217 323.539 16.1265 323.461 16.1289C323.219 16.1372 322.981 16.1479 322.738 16.1575C322.418 16.1706 322.098 16.1837 321.778 16.1968C321.579 16.1658 321.375 16.1337 321.176 16.1027C320.778 16.1182 320.371 16.1265 319.978 16.1515C319.677 16.1706 319.536 16.1206 319.337 16.092C319.269 16.0825 319.197 16.0622 319.134 16.0634C318.411 16.0896 317.688 16.117 316.97 16.1503C316.674 16.1646 316.538 16.111 316.339 16.0837C316.271 16.0753 316.193 16.0598 316.13 16.0622C315.65 16.0789 315.17 16.0991 314.689 16.1194C314.418 16.1313 314.418 16.1313 313.826 16.0575C313.758 16.0491 313.68 16.0408 313.612 16.0432C312.089 16.1027 310.57 16.1658 309.047 16.2253C308.892 16.2313 308.751 16.2134 308.63 16.1813C308.503 16.1491 308.363 16.1325 308.207 16.1384C307.567 16.1634 306.922 16.186 306.286 16.217C306.024 16.2301 305.816 16.2146 305.636 16.1729C305.5 16.142 305.374 16.1301 305.204 16.1372C304.884 16.1515 304.564 16.1634 304.244 16.1765C303.923 16.1896 303.603 16.2027 303.283 16.2158C302.963 16.2289 302.638 16.236 302.322 16.2563C301.934 16.2813 301.745 16.2075 301.478 16.1706C300.998 16.1884 300.517 16.2063 300.042 16.2253C299.402 16.2503 298.761 16.2777 298.121 16.3015C298.062 16.3039 297.99 16.2825 297.922 16.2718C297.723 16.242 297.577 16.2003 297.281 16.2134C295.845 16.2765 294.399 16.3301 292.958 16.392C292.658 16.4051 292.527 16.3539 292.323 16.3265C292.255 16.3182 292.177 16.3015 292.114 16.3039C291.314 16.3337 290.513 16.367 289.713 16.3991C289.388 16.4122 289.388 16.4122 288.844 16.3384C288.781 16.3301 288.699 16.3194 288.631 16.3217C287.588 16.3622 286.549 16.4051 285.506 16.4467C285.351 16.4527 285.21 16.436 285.084 16.4039C284.963 16.3717 284.817 16.3539 284.667 16.3598C283.706 16.3979 282.741 16.4348 281.785 16.4765C281.528 16.4884 281.314 16.4777 281.13 16.4348C280.999 16.4039 280.868 16.3908 280.703 16.3979C279.262 16.4563 277.821 16.5122 276.38 16.5741C276.104 16.586 275.91 16.5634 275.735 16.5241C275.594 16.4932 275.473 16.4872 275.298 16.492C275.114 16.4979 275.002 16.511 274.9 16.5467C274.769 16.5932 274.687 16.6515 274.376 16.6551C274.056 16.6586 273.731 16.6729 273.416 16.6932C273.115 16.7134 272.974 16.6598 272.785 16.6277C272.644 16.6051 272.513 16.6015 272.334 16.6122C272.169 16.6217 272.067 16.642 271.97 16.6801C271.756 16.761 271.737 16.761 271.475 16.7098C271.334 16.6825 271.208 16.661 271.053 16.6658C270.412 16.6896 269.772 16.7158 269.132 16.7432C268.763 16.7586 268.758 16.761 268.482 16.7015C268.346 16.6717 268.215 16.6575 268.055 16.6646C266.293 16.736 264.532 16.8051 262.771 16.8801C262.499 16.892 262.315 16.867 262.121 16.8313C262.058 16.8194 261.995 16.8027 261.922 16.7979C261.849 16.7932 261.767 16.7979 261.689 16.8003C260.408 16.8515 259.122 16.9003 257.846 16.9575C257.555 16.9706 257.4 16.9325 257.201 16.9015C257.133 16.8908 257.075 16.8741 257.002 16.8694C256.929 16.8658 256.842 16.8741 256.765 16.8777C255.484 16.9289 254.198 16.9777 252.922 17.0348C252.616 17.0479 252.485 16.9979 252.286 16.9717C252.218 16.9622 252.146 16.9444 252.083 16.9467C251.68 16.9598 251.282 16.9777 250.879 16.9932C249.919 17.0324 248.958 17.0694 247.997 17.1098C247.629 17.1253 247.469 17.0194 247.158 17.0241C246.755 17.0301 246.358 17.0539 245.955 17.0705C245.635 17.0836 245.314 17.0956 244.994 17.1098C244.679 17.1229 244.679 17.1229 243.893 17.0539C243.825 17.0479 243.742 17.0396 243.675 17.042C242.554 17.086 241.428 17.1301 240.312 17.1777C240.055 17.1884 239.842 17.1825 239.657 17.1384C239.526 17.1075 239.391 17.092 239.23 17.0991C237.547 17.167 235.868 17.2348 234.185 17.3015C234.121 17.3039 234.039 17.292 233.976 17.2825C233.84 17.261 233.709 17.236 233.578 17.2134C233.481 17.2408 233.355 17.2658 233.292 17.2967C233.205 17.3384 233.088 17.3503 232.904 17.3575C232.719 17.3646 232.603 17.3622 232.457 17.3313C232.283 17.2932 232.103 17.2634 231.817 17.2753C230.056 17.3503 228.295 17.4182 226.533 17.492C226.242 17.5039 226.107 17.4515 225.903 17.4241C225.835 17.4158 225.757 17.4027 225.694 17.4051C224.971 17.4325 224.253 17.4622 223.53 17.4908C221.526 17.5717 219.523 17.6491 217.524 17.7348C217.16 17.7503 216.912 17.7205 216.655 17.6694C216.602 17.6586 216.51 17.6527 216.442 17.6551C213.638 17.767 210.833 17.8801 208.034 17.9932C207.883 17.9991 207.738 17.9801 207.616 17.9491C207.49 17.917 207.35 17.9015 207.194 17.9074C205.914 17.9586 204.633 18.0098 203.352 18.0622C203.032 18.0753 203.027 18.0765 202.697 18.0193C202.629 18.0074 202.556 17.9848 202.503 17.9872C202.391 17.9932 202.284 18.0229 202.207 18.0634C202.129 18.1062 202.008 18.1182 201.828 18.1265C201.644 18.1348 201.523 18.1313 201.382 18.1027C201.203 18.067 201.038 18.0324 200.746 18.0444C197.064 18.1967 193.382 18.3431 189.699 18.4943C189.403 18.5062 189.267 18.4562 189.063 18.4289C188.996 18.4205 188.928 18.4086 188.855 18.4062C188.777 18.4039 188.695 18.411 188.617 18.4146C182.611 18.6562 176.604 18.8991 170.598 19.1408C170.239 19.155 170.244 19.1551 169.851 19.2646C169.802 19.2777 169.739 19.2955 169.671 19.2979C167.832 19.3741 165.989 19.4479 164.145 19.5217C163.344 19.5538 162.544 19.5872 161.743 19.6181C161.457 19.6289 161.457 19.6289 160.773 19.7574C160.715 19.7681 160.647 19.7824 160.579 19.7848C157.377 19.9146 154.175 20.0443 150.968 20.1717C150.715 20.1812 150.512 20.2027 150.395 20.2598C150.313 20.3003 150.206 20.3241 150.046 20.3312C147.804 20.4217 145.563 20.5134 143.317 20.6015C143.05 20.6122 142.89 20.6455 142.759 20.6955C142.715 20.7122 142.676 20.7312 142.613 20.7431C142.555 20.7538 142.467 20.7574 142.395 20.761C140.473 20.8384 138.552 20.9181 136.626 20.9919C136.34 21.0027 136.223 21.0467 136.083 21.0931C136.034 21.1086 136 21.13 135.937 21.1407C135.874 21.1503 135.782 21.1503 135.704 21.1526C134.103 21.2169 132.502 21.2824 130.901 21.3467C130.59 21.3407 130.522 21.4098 130.372 21.4515C130.319 21.4657 130.28 21.4848 130.217 21.4943C130.149 21.5038 130.062 21.5026 129.979 21.505C128.698 21.5562 127.417 21.611 126.132 21.6586C125.836 21.6693 125.777 21.73 125.617 21.7717C125.564 21.7848 125.511 21.805 125.448 21.8086C124.647 21.8431 123.847 21.8753 123.046 21.9062C122.779 21.9169 122.779 21.9157 122.309 22.0336C122.255 22.0467 122.192 22.061 122.124 22.0645C120.926 22.1145 119.723 22.1622 118.519 22.211C118.364 22.2169 118.257 22.2455 118.18 22.286C118.102 22.3264 117.991 22.3526 117.835 22.3586C116.875 22.3979 115.914 22.4383 114.953 22.4741C114.686 22.4836 114.512 22.5133 114.395 22.5669C114.308 22.6074 114.201 22.6276 114.031 22.6348C113.071 22.6729 112.11 22.7145 111.145 22.7479C110.863 22.7574 110.718 22.7979 110.601 22.8479C110.509 22.8883 110.402 22.9026 110.223 22.9098C108.462 22.9788 106.696 23.0479 104.939 23.124C104.643 23.1371 104.493 23.0955 104.299 23.0657C104.022 23.024 103.765 22.9788 103.765 22.886C103.765 22.8717 103.683 22.855 103.625 22.8431C103.193 22.7538 103.193 22.7538 103.125 22.6586C103.086 22.6003 103.042 22.5407 103.008 22.4812C102.945 22.3836 102.79 22.3586 102.344 22.3764C102.184 22.3824 102.023 22.3907 101.863 22.3955C101.626 22.4038 101.446 22.3645 101.402 22.2931C101.378 22.2538 101.349 22.2145 101.325 22.1752C101.567 22.1657 101.562 22.1645 101.989 22.0205C102.169 21.9598 102.169 21.9598 101.825 21.8991C101.694 21.8764 101.567 21.8514 101.427 21.83C101.364 21.8205 101.281 21.8145 101.213 21.8169C100.811 21.8312 100.413 21.8479 100.015 21.8645C99.3745 21.8907 99.3744 21.8907 98.7242 21.7693C98.6709 21.7598 98.5884 21.7419 98.5981 21.7324C98.6515 21.6884 98.7824 21.6693 98.9474 21.6645C99.19 21.6574 99.4277 21.6455 99.6655 21.636C99.8256 21.63 99.9857 21.6229 100.146 21.6169C100.296 21.5717 100.452 21.5276 100.592 21.4812C100.815 21.4098 100.815 21.4074 100.51 21.3574C100.316 21.3241 100.107 21.2943 99.908 21.2634C99.6703 21.2729 99.4277 21.2836 99.19 21.2919C98.8892 21.3026 98.7679 21.28 98.6902 21.2026C98.6223 21.1348 98.7048 21.0765 98.9377 21.0622C99.1754 21.0479 99.3987 21.0384 99.52 20.9777C99.6364 20.9193 99.8402 20.8967 100.092 20.8919C100.253 20.8884 100.413 20.88 100.573 20.8729C100.781 20.8634 100.893 20.8027 100.849 20.7348C100.825 20.6907 100.777 20.6538 100.587 20.6443C99.748 20.6027 99.7382 20.6038 99.321 20.5229C99.2822 20.5157 99.2531 20.4943 99.2677 20.4836C99.292 20.4658 99.3453 20.4396 99.4036 20.436C99.9615 20.4098 100.519 20.386 101.077 20.3681C101.262 20.3622 101.398 20.3538 101.461 20.3098C101.548 20.2491 101.509 20.1931 101.339 20.1515C101.286 20.1384 101.199 20.1217 101.14 20.1229C100.5 20.1443 99.8644 20.1717 99.224 20.1931C99.1658 20.1955 99.0591 20.1753 99.0348 20.1598C98.9863 20.1312 99.059 20.0931 99.2288 20.08C99.452 20.0622 99.68 20.061 99.8305 20.0015C100.039 19.9169 100.296 19.8396 100.529 19.7586C100.568 19.7443 100.631 19.7169 100.616 19.7146C100.495 19.6884 100.354 19.6681 100.228 19.6431C100.015 19.6015 100.015 19.5431 100.063 19.4872C100.102 19.442 100.248 19.4241 100.427 19.4241C100.505 19.4241 100.602 19.4241 100.665 19.4134C100.83 19.3872 100.883 19.3539 100.801 19.3289C100.752 19.3146 100.665 19.2943 100.607 19.2967C99.5685 19.336 98.5253 19.3741 97.4919 19.4229C97.1862 19.4372 97.0456 19.3919 96.8613 19.3598C96.7206 19.3348 96.5895 19.3253 96.4148 19.3431C96.2499 19.3598 96.0898 19.3503 95.9879 19.311C95.9054 19.2789 96.051 19.2515 96.444 19.2205C96.5167 19.2146 96.5992 19.211 96.6525 19.1991C97.2153 19.0705 97.2153 19.0693 97.6035 19.0527C97.9819 19.0372 97.982 19.036 98.1809 18.967C98.2731 18.9348 98.3749 18.9027 98.4622 18.8693C98.4962 18.8562 98.5545 18.8324 98.5351 18.8253C98.4283 18.7884 98.2827 18.7801 98.1129 18.7884C97.7345 18.8086 97.2882 18.792 97.0893 18.9051C97.0116 18.9479 96.8903 18.9598 96.7157 18.967C94.9594 19.036 93.203 19.1098 91.4418 19.1765C91.1555 19.1872 91.0246 19.2312 90.913 19.2801C90.816 19.3205 90.7092 19.3324 90.5249 19.3396C90.3405 19.3467 90.1949 19.3503 90.0881 19.311C90.0251 19.2872 90.0784 19.2539 90.224 19.2205C90.4326 19.1729 90.3938 19.1134 90.3259 19.0574C90.2774 19.0205 90.127 18.9943 89.9668 18.9967C89.7291 19.0015 89.5011 19.0146 89.3022 18.967C89.1858 18.9396 89.0402 18.9205 88.9092 18.8967C88.6569 18.8479 88.4046 18.7979 88.0504 18.8301C87.8078 18.8181 87.638 18.7753 87.444 18.742C87.1189 18.6872 87.0898 18.6789 87.3227 18.6205C87.5847 18.5551 87.3809 18.4693 87.5264 18.4051C87.6817 18.336 87.8952 18.2753 88.0844 18.211C88.1329 18.1944 88.1766 18.1789 88.2251 18.1622C88.1136 18.1384 88.0117 18.1086 87.8807 18.092C87.7109 18.0705 87.6235 18.0444 87.6333 17.9705C87.5993 17.9598 87.6137 17.9872 87.6526 17.9943C87.6962 18.0015 87.803 17.9955 87.8564 17.9872C87.9923 17.9646 88.0601 17.9348 88.0262 17.9098C88.0067 17.8967 87.9146 17.8801 87.8564 17.8801C87.7497 17.8801 87.6575 17.9063 87.6284 17.9705C87.085 18.0194 86.5221 18.0432 85.9593 18.0622C85.9011 18.0646 85.8284 18.0408 85.7604 18.0289C85.5373 17.9884 85.5372 17.9896 84.8822 17.9777C84.8143 17.9765 84.7222 17.9598 84.6882 17.9432C84.5475 17.8705 84.5524 17.7908 84.4845 17.7134C84.6106 17.6634 84.7367 17.6146 84.8677 17.5658C85.1297 17.467 85.4694 17.3801 85.6731 17.2717C85.6295 17.2134 85.5712 17.1551 85.7847 17.1075C86.3912 17.0479 86.3864 17.0479 86.5513 16.9908C87.0219 16.8289 87.4877 16.6658 87.9777 16.5063C88.1087 16.4646 88.1087 16.442 87.8758 16.4241C87.8031 16.4194 87.7253 16.4182 87.6477 16.4206C87.4051 16.4289 87.1625 16.4503 86.9248 16.4456C86.6871 16.442 86.5124 16.3896 86.3183 16.3575C86.1194 16.3241 85.9205 16.2896 85.7216 16.2551C85.4935 16.2587 85.2656 16.292 85.0375 16.2384C84.8629 16.1968 84.6446 16.167 84.4456 16.1325C84.596 16.042 84.8775 15.9729 85.0958 15.8932C85.2947 15.8206 85.2995 15.8218 85.8332 15.7658C86.0854 15.7396 86.1728 15.6051 85.9593 15.5658C85.7022 15.5182 85.4305 15.4741 85.1685 15.4289C84.9405 15.4325 84.7077 15.4646 84.4893 15.4111C84.3195 15.3706 84.1254 15.3432 83.844 15.3587C83.3686 15.3849 82.8834 15.3979 82.4031 15.4194C82.2381 15.4265 82.0585 15.4218 81.9858 15.3813C81.9373 15.3527 82.078 15.3134 82.2381 15.3051C82.4807 15.2932 82.699 15.2789 82.8203 15.2194C82.9367 15.1599 83.1501 15.142 83.4024 15.1337C83.4704 15.1313 83.548 15.117 83.582 15.1027C83.7567 15.0337 83.9508 14.9741 84.3243 14.9765C84.4796 14.9527 84.562 14.923 84.5135 14.8944C84.4844 14.8789 84.3826 14.8587 84.3243 14.8611C83.9216 14.873 83.519 14.8849 83.126 14.9063C82.9416 14.9158 82.8008 14.9182 82.6844 14.8825C82.6019 14.8587 82.6456 14.8265 82.8008 14.792C82.9367 14.7622 82.9755 14.7277 82.9658 14.6872C82.9416 14.5932 82.796 14.5658 82.3302 14.5718C81.9955 14.5765 81.913 14.5611 81.8402 14.4801C81.8208 14.4611 81.7724 14.4349 81.8063 14.4218C82.0149 14.3408 82.1508 14.2408 82.5438 14.2027C82.699 14.1884 82.8639 14.1884 82.961 14.1575C83.058 14.1265 83.1454 14.0908 83.2473 14.0611C83.3734 14.0253 83.4607 13.992 83.4024 13.9694C83.3054 13.9289 83.1502 13.9254 82.9707 13.9396C82.8154 13.9515 82.6505 13.9527 82.4904 13.9599C82.2041 13.973 81.9713 13.942 81.9373 13.8896C81.8451 13.7515 81.7481 13.6146 81.6656 13.4766C81.6559 13.4599 81.6801 13.4384 81.7189 13.4242C81.8547 13.3742 82.0004 13.3265 82.1411 13.2777C82.306 13.2218 82.5681 13.2325 82.7912 13.2218C83.1066 13.2063 83.1065 13.2075 83.5286 13.0932C83.6935 13.048 83.9798 13.0658 84.1496 13.0254C84.203 13.0123 84.2855 12.9908 84.2709 12.9789C84.2515 12.9635 84.1545 12.9515 84.0818 12.9444C84.0138 12.9373 83.9314 12.9337 83.8586 12.9373C82.9756 12.9718 82.0974 13.0087 81.2144 13.042C81.064 13.048 80.8991 13.0218 80.8457 12.9849C80.7923 12.9504 80.8068 12.9087 80.7971 12.8694C80.9378 12.8206 81.0979 12.7754 81.2192 12.723C81.3113 12.6825 81.4181 12.6646 81.6025 12.6623C81.8451 12.6587 82.0828 12.6444 82.3545 12.6337C82.8591 12.4599 83.3539 12.2778 83.8973 12.1039C84.1157 12.0337 84.0624 11.9623 84.106 11.8873C84.1497 11.8182 84.4747 11.8289 84.6931 11.8087C84.8677 11.792 84.9259 11.7539 84.858 11.7278C84.8191 11.7123 84.7319 11.6944 84.6639 11.6944C84.5038 11.6944 84.3437 11.7051 84.1836 11.7111C84.0235 11.717 83.8392 11.7135 83.7082 11.7337C83.582 11.7528 83.4995 11.7932 83.417 11.8277C83.3248 11.8658 83.2036 11.8789 83.0192 11.8813C82.7815 11.8837 82.5438 11.8944 82.3061 11.9027C82.0441 11.8563 81.7723 11.8111 81.52 11.7623C81.4715 11.7528 81.4617 11.7254 81.4666 11.7075C81.4763 11.6611 81.4035 11.6325 81.2434 11.6099C81.1076 11.5909 80.996 11.5635 80.8698 11.5397C80.9669 11.5075 81.0737 11.4766 81.1513 11.442C81.3211 11.3694 81.5346 11.3171 81.9033 11.3194C82.0489 11.273 82.1653 11.2159 82.3545 11.1837C82.534 11.1528 82.8397 11.1837 82.9755 11.1135C83.0435 11.0789 83.1454 11.0397 83.2764 11.0254C83.485 11.0028 83.7567 11.0147 83.878 10.948C83.9508 10.9099 84.0575 10.8754 84.1982 10.8659C84.3583 10.8551 84.5232 10.8528 84.6397 10.8302C84.7027 10.8183 84.7707 10.7992 84.7707 10.7825C84.7707 10.7718 84.6737 10.7551 84.6058 10.748C84.5427 10.7397 84.4601 10.7337 84.3874 10.7361C84.1448 10.7432 83.907 10.7563 83.6644 10.7635C83.5965 10.7659 83.5189 10.7575 83.4461 10.7504C83.2327 10.7313 83.2472 10.7075 83.417 10.6647C83.5868 10.623 83.7082 10.5694 83.8489 10.5206C84.0041 10.5123 84.1982 10.5159 84.3049 10.4932C84.4844 10.4563 84.6105 10.4028 84.7561 10.3563C84.9162 10.3492 85.0811 10.3468 85.2315 10.3337C85.2946 10.329 85.3238 10.3028 85.3771 10.2873C85.4742 10.2575 85.5567 10.2147 85.6877 10.2004C85.9012 10.179 86.1632 10.1873 86.2893 10.1218C86.3621 10.0837 86.4736 10.0433 86.6095 10.0409C86.9879 10.0361 87.148 9.97063 87.3421 9.90872C87.4877 9.8623 87.7982 9.88611 87.9583 9.83968C88.065 9.80992 88.1427 9.77301 88.2494 9.74444C88.2931 9.73254 88.3852 9.72659 88.458 9.72302C88.8559 9.70516 89.2585 9.69206 89.6564 9.67302C89.7195 9.66944 89.7777 9.6516 89.8262 9.63731C89.9281 9.60636 89.9911 9.5635 90.1173 9.54326C90.2434 9.52302 90.4229 9.52303 90.5782 9.51707C91.0779 9.49922 91.1167 9.50397 91.3448 9.40278C91.5291 9.32064 91.9804 9.37897 92.1308 9.2885C92.2181 9.23612 92.3782 9.19326 92.6644 9.18731C93.0671 9.17898 93.465 9.15636 93.8677 9.14088C94.2267 9.1266 94.2218 9.12659 94.61 9.01588C94.7846 8.96588 95.0418 8.97303 95.2699 8.9635C95.5125 8.95398 95.7356 8.9397 95.8521 8.88018C95.9685 8.82185 96.1819 8.80279 96.4294 8.79445C96.6574 8.78612 96.9146 8.79208 97.0941 8.74446C97.5308 8.63018 97.5259 8.62898 97.8316 8.61708C98.3119 8.59803 98.7922 8.57898 99.2726 8.55875C99.5928 8.54565 99.9275 8.54327 100.228 8.51708C100.447 8.49803 100.544 8.43137 100.684 8.38494C101.082 8.36709 101.48 8.34922 101.878 8.33255C102.436 8.30874 102.999 8.28732 103.561 8.2647C103.804 8.21947 103.838 8.11947 104.246 8.11471C104.488 8.11232 104.726 8.09685 104.968 8.08733C105.371 8.07066 105.769 8.04923 106.172 8.0409C106.477 8.03494 106.531 7.97065 106.691 7.93018C106.744 7.91589 106.793 7.89566 106.856 7.89209C107.486 7.85876 108.137 7.85161 108.753 7.8028C108.816 7.79804 108.874 7.77304 108.889 7.75518C108.898 7.74566 108.816 7.72781 108.762 7.71948C108.699 7.70995 108.617 7.70043 108.549 7.70281C106.545 7.78257 104.542 7.86352 102.538 7.94329C102.256 7.95519 102.256 7.95399 101.572 8.08494C101.514 8.09566 101.446 8.10756 101.373 8.11113C101.053 8.12542 100.728 8.13376 100.413 8.15162C100.155 8.1659 99.9421 8.1516 99.7577 8.10875C99.6267 8.0778 99.4908 8.06828 99.3259 8.07066C99.1415 8.07423 99.0203 8.08733 98.9135 8.11947C98.7728 8.16352 98.7 8.22065 98.4041 8.23256C97.0407 8.28375 95.6773 8.34089 94.3188 8.39565C94.1296 8.37899 94.0374 8.35399 94.086 8.32423C94.1151 8.30637 94.1733 8.28256 94.2315 8.28018C94.7895 8.25518 95.3523 8.23376 95.9102 8.20995C95.9878 8.20638 96.0946 8.20874 96.1382 8.19684C96.3517 8.14327 96.4294 8.05637 96.8321 8.05042C97.065 8.04684 97.3027 8.02899 97.5259 8.01233C97.589 8.00757 97.6472 7.98256 97.6617 7.96471C97.6666 7.95518 97.589 7.93732 97.5307 7.92899C97.3173 7.89446 97.0699 7.93614 96.8564 7.91233C96.7836 7.904 96.6817 7.89209 96.6671 7.8778C96.6574 7.86471 96.7399 7.84328 96.7981 7.83018C96.8515 7.81828 96.9242 7.80757 96.997 7.804C97.6374 7.77662 98.278 7.74804 98.9184 7.72661C99.1804 7.71828 99.3647 7.68852 99.4811 7.63375C99.5685 7.59328 99.6752 7.57186 99.8402 7.5659C100.961 7.52186 102.082 7.47305 103.207 7.43257C103.489 7.42305 103.634 7.38377 103.751 7.33258C103.843 7.2921 103.95 7.27781 104.129 7.27067C105.735 7.20877 107.331 7.13972 108.937 7.0802C109.233 7.06949 109.32 7.0183 109.471 6.97425C109.524 6.95877 109.558 6.93973 109.626 6.9302C109.694 6.92068 109.781 6.92186 109.864 6.91948C111.145 6.86829 112.426 6.81354 113.711 6.76592C114.012 6.7552 114.07 6.69567 114.226 6.65401C114.279 6.64091 114.327 6.61949 114.391 6.61592C115.351 6.57544 116.312 6.53735 117.272 6.49806C117.913 6.47187 118.553 6.44568 119.194 6.42068C119.509 6.40878 119.509 6.40758 119.936 6.29448C119.985 6.28139 120.052 6.26591 120.116 6.26234C121.959 6.18615 123.798 6.11355 125.642 6.03855C125.797 6.03259 125.908 6.0052 125.986 5.96472C126.064 5.92425 126.175 5.89687 126.326 5.89092C127.767 5.83139 129.208 5.77307 130.654 5.71711C130.916 5.70759 131.1 5.67902 131.216 5.62545C131.304 5.58497 131.41 5.56355 131.575 5.5576C133.016 5.50045 134.457 5.43973 135.903 5.38497C136.18 5.37426 136.315 5.33379 136.451 5.28617C136.5 5.2695 136.539 5.24212 136.597 5.23974C137.315 5.2064 138.028 5.17188 138.751 5.14926C139.052 5.13974 139.154 5.08973 139.275 5.04212C139.372 5.00402 139.484 4.99093 139.668 4.98617C140.071 4.97545 140.469 4.95522 140.862 4.93499C140.92 4.93142 140.993 4.90522 140.997 4.88856C141.007 4.8576 140.896 4.83617 140.711 4.82546C138.79 4.90284 136.864 4.98021 134.942 5.05759C134.627 5.07069 134.627 5.07069 134.2 5.18379C134.152 5.19688 134.084 5.21236 134.016 5.21593C132.172 5.29093 130.333 5.36474 128.49 5.43974C128.334 5.44569 128.223 5.47307 128.145 5.51355C128.068 5.55402 127.956 5.5814 127.805 5.58736C126.044 5.65878 124.283 5.73141 122.517 5.79926C122.255 5.80879 122.071 5.83615 121.954 5.89092C121.867 5.93139 121.76 5.95283 121.595 5.95878C119.912 6.02545 118.233 6.09568 116.545 6.15996C116.375 6.16591 116.249 6.13139 116.258 6.09925C116.263 6.08258 116.336 6.05521 116.394 6.05283C117.272 6.01355 118.146 5.97307 119.029 5.9433C119.325 5.93378 119.412 5.8814 119.562 5.83735C119.611 5.82188 119.65 5.80164 119.713 5.7933C119.781 5.78378 119.868 5.78498 119.951 5.78259C122.032 5.69807 124.113 5.61236 126.2 5.5326C126.5 5.5207 126.559 5.46236 126.714 5.42069C126.767 5.4064 126.816 5.38498 126.879 5.3826C127.519 5.35403 128.16 5.32903 128.8 5.30403C129.921 5.25879 131.042 5.21355 132.167 5.16831C132.492 5.15522 132.492 5.15521 132.91 5.04331C132.958 5.03021 133.026 5.01356 133.089 5.01118C136.054 4.89094 139.018 4.7707 141.982 4.65166C142.138 4.6457 142.249 4.61832 142.327 4.57785C142.404 4.53856 142.516 4.50999 142.666 4.50285C146.674 4.34095 150.677 4.17904 154.684 4.01951C154.946 4.0088 155.13 3.9838 155.247 3.92785C155.329 3.88737 155.441 3.86595 155.606 3.8588C160.011 3.68143 164.417 3.50405 168.827 3.32548C171.791 3.20643 174.756 3.08501 177.72 2.96834C177.992 2.95763 178.137 2.92072 178.273 2.87191C178.317 2.85524 178.361 2.82786 178.419 2.82548C179.054 2.79572 179.69 2.76834 180.325 2.74096C180.524 2.7731 180.723 2.80406 180.922 2.8362C181.073 2.79096 181.218 2.74453 181.369 2.6993C182.329 2.66477 183.275 2.6112 184.246 2.59453C184.309 2.59334 184.377 2.61597 184.445 2.62787C184.896 2.70287 185.153 2.69692 185.439 2.59692C185.541 2.5612 185.628 2.52906 185.784 2.52311C186.264 2.50168 186.749 2.48739 187.225 2.46239C187.482 2.4493 187.695 2.4612 187.88 2.50406C188.011 2.53501 188.147 2.54811 188.307 2.54097C189.19 2.50526 190.068 2.47073 190.951 2.43263C191.014 2.43025 191.072 2.41001 191.121 2.39572C191.222 2.36477 191.31 2.33144 191.407 2.2993C191.538 2.31954 191.683 2.33502 191.79 2.36121C191.926 2.39216 192.052 2.39215 192.237 2.38382C195.759 2.23977 199.286 2.0993 202.808 1.95406C203.109 1.94216 203.24 1.99216 203.444 2.01835C203.512 2.02788 203.58 2.03978 203.653 2.04216C203.73 2.04454 203.813 2.0374 203.89 2.03383C206.535 1.92669 209.179 1.82073 211.823 1.71359C212.172 1.6993 212.172 1.6993 212.691 1.77311C212.755 1.78264 212.837 1.79335 212.905 1.78978C214.108 1.74335 215.311 1.69336 216.51 1.64574C216.665 1.63979 216.796 1.65883 216.937 1.68621C217.213 1.73978 217.233 1.73979 217.436 1.66122C217.533 1.62431 217.635 1.60168 217.795 1.59097C217.97 1.57906 218.111 1.58265 218.247 1.60408C218.441 1.63384 218.581 1.68383 218.877 1.67073C220.158 1.61478 221.444 1.56836 222.72 1.51122C223.011 1.49812 223.166 1.53859 223.36 1.56836C223.428 1.57907 223.491 1.59574 223.564 1.59931C223.637 1.60288 223.724 1.59454 223.802 1.59097C225.403 1.52668 227.009 1.4636 228.605 1.39455C228.906 1.38146 229.037 1.43264 229.241 1.45883C229.309 1.46835 229.386 1.48503 229.449 1.48265C230.41 1.44574 231.376 1.40645 232.336 1.36716C232.681 1.35288 232.681 1.35407 233.204 1.42668C233.268 1.43621 233.35 1.44573 233.418 1.44335C234.539 1.3993 235.664 1.35407 236.785 1.30883C237.13 1.29454 237.13 1.29455 238.124 1.35645C238.197 1.36121 238.275 1.36836 238.347 1.36598C239.628 1.31479 240.914 1.26479 242.195 1.21003C242.452 1.19931 242.665 1.20883 242.85 1.25169C242.981 1.28264 243.117 1.29574 243.277 1.2886C244.718 1.23027 246.164 1.17432 247.6 1.11241C247.876 1.10051 248.056 1.12669 248.25 1.16121C248.313 1.17312 248.376 1.18979 248.449 1.19455C248.521 1.19931 248.604 1.19455 248.682 1.19097C250.123 1.13264 251.568 1.07788 253.004 1.01479C253.296 1.00169 253.451 1.04217 253.645 1.07193C253.713 1.08264 253.786 1.10407 253.844 1.10288C254.407 1.08264 254.969 1.06479 255.527 1.03503C255.828 1.01837 255.959 1.07312 256.163 1.09931C256.231 1.10764 256.308 1.12551 256.372 1.12312C257.575 1.0767 258.778 1.02789 259.976 0.977892C260.146 0.970749 260.272 0.981453 260.408 1.01241C260.588 1.05407 260.796 1.07074 261.058 1.05764C261.616 1.03026 262.179 1.01122 262.742 0.988602C263.072 0.975507 263.072 0.975511 264.081 1.03741C264.154 1.04218 264.231 1.04931 264.304 1.04693C265.265 1.00884 266.23 0.971937 267.186 0.93027C267.443 0.918366 267.657 0.929077 267.841 0.971934C267.972 1.00289 268.103 1.01599 268.268 1.00885C269.151 0.973131 270.029 0.937414 270.912 0.901701C271.232 0.888605 271.553 0.865981 271.873 0.865981C272.106 0.867171 272.276 0.924311 272.484 0.952882C272.542 0.961215 272.639 0.951703 272.717 0.949322C273.838 0.904084 274.963 0.862414 276.079 0.811224C276.37 0.798129 276.526 0.838603 276.72 0.868364C276.788 0.879078 276.86 0.900508 276.919 0.899317C277.321 0.886222 277.719 0.868364 278.122 0.852888C278.602 0.83384 279.087 0.819555 279.563 0.793364C279.951 0.771936 280.096 0.875503 280.407 0.879074C280.645 0.882646 280.887 0.862411 281.125 0.852888C281.605 0.83384 282.086 0.812414 282.566 0.795748C282.736 0.789795 282.867 0.77074 282.92 0.727883C282.93 0.71955 282.848 0.701701 282.794 0.690986C282.149 0.569559 282.149 0.569553 281.499 0.595744C281.096 0.61241 280.698 0.629079 280.295 0.643365C280.228 0.645746 280.15 0.636223 280.082 0.62908C279.888 0.608842 279.907 0.585035 280.072 0.542179C280.237 0.499322 280.363 0.446946 280.504 0.398137C280.703 0.429089 280.897 0.46003 281.096 0.490982C281.256 0.48503 281.416 0.477898 281.576 0.471946C282.377 0.440993 283.177 0.408849 283.978 0.380278C284.036 0.377897 284.109 0.401709 284.177 0.413614C284.371 0.448137 284.546 0.477891 284.827 0.464796C285.545 0.430272 286.268 0.405273 286.986 0.375511C287.301 0.362416 287.301 0.362417 287.854 0.436226C287.918 0.444559 288 0.454083 288.068 0.451702C288.791 0.424322 289.509 0.394564 290.232 0.365993C290.387 0.36004 290.537 0.375516 290.649 0.410039C290.693 0.424325 290.683 0.448129 290.867 0.643365C291.44 0.801696 291.833 0.785038 292.231 0.770753C292.401 0.7648 292.551 0.758842 292.662 0.735033C292.721 0.721938 292.794 0.702888 292.794 0.687412C292.794 0.675507 292.687 0.656456 292.619 0.654075C292.139 0.630266 291.682 0.680272 291.212 0.690986C290.993 0.695748 290.804 0.654082 290.766 0.586225C290.756 0.567178 290.741 0.546941 290.727 0.527894C290.712 0.508846 290.702 0.48861 290.688 0.469562C290.499 0.46361 290.387 0.485035 290.305 0.52551C290.237 0.558843 290.14 0.596938 290.009 0.614795C289.878 0.633842 289.698 0.630278 289.538 0.63623C289.383 0.642182 289.213 0.657656 289.067 0.649323C288.922 0.639799 288.805 0.60527 288.67 0.583842C288.606 0.573128 288.529 0.557658 288.466 0.560039C287.908 0.580276 287.355 0.600507 286.802 0.626697C286.511 0.640982 286.365 0.590991 286.181 0.560039C286.035 0.536229 285.889 0.542174 285.865 0.596935C285.802 0.727886 286.025 0.782644 286.52 0.757645C286.928 0.736216 287.297 0.732656 287.617 0.813608C287.66 0.824322 287.762 0.829082 287.825 0.826701C288.223 0.812415 288.616 0.794557 289.014 0.780271C289.087 0.77789 289.164 0.782644 289.232 0.787406C290.222 0.851691 290.222 0.852888 290.557 0.838603C290.717 0.83146 290.872 0.825507 290.858 0.644557C291.163 0.450511 291.649 0.437419 292.119 0.408848C292.425 0.390991 292.556 0.443373 292.755 0.470754C292.823 0.480278 292.895 0.499321 292.958 0.496941C294.002 0.457655 295.04 0.415983 296.078 0.371936C296.253 0.364793 296.379 0.371937 296.515 0.402889C296.689 0.442175 296.883 0.46718 297.16 0.452894C297.713 0.424323 298.276 0.40647 298.839 0.382661C299.125 0.370756 299.125 0.370744 299.702 0.444553C299.765 0.452886 299.848 0.46241 299.916 0.460029C300.479 0.439791 301.037 0.414799 301.595 0.393371C301.75 0.387419 301.89 0.404083 302.012 0.436226C302.133 0.468368 302.279 0.485033 302.429 0.479081C302.992 0.457652 303.55 0.433851 304.108 0.412422C304.176 0.410041 304.258 0.418374 304.321 0.426707C304.913 0.500516 304.913 0.500504 305.185 0.488599C305.583 0.470742 305.99 0.462418 306.383 0.438609C306.766 0.4148 306.965 0.483841 307.227 0.521936C307.945 0.494555 308.668 0.471942 309.382 0.438609C309.673 0.424324 309.828 0.463605 310.022 0.494557C310.09 0.505271 310.158 0.527893 310.221 0.526702C310.463 0.52194 310.701 0.508847 310.939 0.499324C311.177 0.4898 311.419 0.480278 311.657 0.470754C311.929 0.505277 312.108 0.586228 312.496 0.558847C312.729 0.54218 312.977 0.538609 313.214 0.529085C313.452 0.519562 313.695 0.510039 313.933 0.500515C314.093 0.494563 314.258 0.490986 314.413 0.480272C314.699 0.462415 314.84 0.520755 315.044 0.546945C315.112 0.555278 315.189 0.569555 315.252 0.567174C315.732 0.550507 316.218 0.536223 316.688 0.508842C317.052 0.487414 317.3 0.523132 317.557 0.573132C317.61 0.583846 317.702 0.589798 317.77 0.587417C318.333 0.567179 318.891 0.542172 319.449 0.520744C319.599 0.514792 319.745 0.533838 319.866 0.56479C319.992 0.596933 320.133 0.612421 320.288 0.606468C320.846 0.58504 321.409 0.561224 321.967 0.539795C322.035 0.537415 322.117 0.54694 322.18 0.556464C322.724 0.630272 322.724 0.631464 323.044 0.617178C323.122 0.613607 323.204 0.611217 323.282 0.607645C323.68 0.590979 324.092 0.585035 324.48 0.556464C324.927 0.524321 325.252 0.564799 325.567 0.632655C325.965 0.618369 326.372 0.610034 326.76 0.586225C327.052 0.568368 327.207 0.613604 327.401 0.643365C327.469 0.654079 327.542 0.675508 327.6 0.673127C328.163 0.652889 328.725 0.635038 329.278 0.605277C329.579 0.58861 329.71 0.642171 329.914 0.669552C329.982 0.679075 330.055 0.695751 330.118 0.69337C330.438 0.683846 330.758 0.669553 331.079 0.656458C331.452 0.640982 331.452 0.642172 331.947 0.71479C332.18 0.749313 332.413 0.721931 332.641 0.713598C332.883 0.704075 333.111 0.696934 333.305 0.745743C333.427 0.776695 333.572 0.795743 333.723 0.790981C334.043 0.780267 334.368 0.769558 334.683 0.751701C334.936 0.737416 335.154 0.746934 335.338 0.790981C335.469 0.821933 335.605 0.837418 335.765 0.830276C336.483 0.801705 337.206 0.771932 337.924 0.744551C337.987 0.74217 338.075 0.752889 338.133 0.763603C338.269 0.785031 338.4 0.808835 338.531 0.832644C338.846 0.82193 339.171 0.817181 339.482 0.800514C339.812 0.783848 340.112 0.777894 340.37 0.843369C340.423 0.857655 340.501 0.877881 340.564 0.876691C340.806 0.871929 341.044 0.860028 341.282 0.850504C341.519 0.840981 341.762 0.831458 342 0.821934C342.276 0.851696 342.451 0.937408 342.839 0.910027C343.072 0.893361 343.319 0.88979 343.557 0.880266C343.795 0.870742 344.038 0.860029 344.275 0.851696C344.353 0.849315 344.44 0.843359 344.508 0.848121C344.581 0.852883 344.644 0.869553 344.707 0.881457C344.901 0.915981 345.081 0.950508 345.357 0.93027C345.59 0.913604 345.838 0.910031 346.075 0.899317C346.4 0.886222 346.4 0.886225 346.939 0.961224C347.157 0.992176 347.405 0.951702 347.613 0.977892C347.754 0.995749 347.875 1.0255 348.011 1.04574C348.069 1.05408 348.161 1.05764 348.229 1.05526C348.55 1.04455 348.875 1.03384 349.19 1.01598C349.447 1.00169 349.661 1.01598 349.84 1.05884C349.971 1.08979 350.102 1.10289 350.267 1.09575C351.068 1.06241 351.868 1.03383 352.664 0.996929C352.936 0.983834 353.154 1.00408 353.304 1.04693C353.561 1.12074 353.925 1.03384 354.192 1.09336C354.357 1.13027 354.522 1.17313 354.823 1.15527C355.376 1.12432 355.939 1.10764 356.497 1.08621C356.696 1.11836 356.895 1.15051 357.098 1.18265C357.419 1.16955 357.739 1.15645 358.059 1.14454C358.297 1.13502 358.539 1.12431 358.777 1.11597C358.855 1.11359 358.937 1.10883 359.01 1.11478C359.083 1.12074 359.141 1.13622 359.209 1.14812C359.544 1.20645 359.544 1.20765 360.097 1.18384C360.334 1.17313 360.563 1.16598 360.761 1.2136C360.946 1.25765 361.164 1.26598 361.416 1.25288C361.892 1.22907 362.372 1.21122 362.857 1.19455C363.008 1.1886 363.148 1.20884 363.275 1.23979C363.464 1.2886 363.697 1.28384 363.935 1.27074C364.25 1.25407 364.56 1.23741 364.827 1.30408C364.88 1.31836 364.963 1.33859 365.021 1.3374C365.419 1.32788 365.822 1.32074 366.21 1.29812C366.598 1.2755 366.787 1.34931 367.054 1.38502C367.452 1.36954 367.855 1.35407 368.253 1.33859C368.33 1.33502 368.422 1.32431 368.49 1.33026C368.776 1.35526 368.941 1.44455 369.334 1.41717C369.562 1.40169 369.81 1.39693 370.048 1.39336C370.111 1.39217 370.193 1.4124 370.237 1.42788C370.261 1.43621 370.237 1.45883 370.208 1.47073C370.12 1.50406 370.014 1.53502 369.936 1.56955C369.926 1.57431 370.019 1.59573 370.072 1.60525C370.203 1.62668 370.353 1.62312 370.528 1.61359C370.678 1.60526 370.834 1.62193 370.94 1.65764C370.984 1.67193 370.969 1.69573 370.877 1.7743C370.877 1.83264 370.979 1.80644 371.013 1.76835C371.066 1.71358 370.965 1.69573 370.771 1.72549C370.635 1.74692 370.567 1.77787 370.601 1.80287C370.62 1.81597 370.712 1.83264 370.877 1.7743C371.304 1.70288 371.624 1.68979 371.945 1.67669C372.027 1.67312 372.124 1.66121 372.182 1.66835C372.391 1.69692 372.585 1.73145 372.789 1.76359C373.022 1.75645 373.24 1.73859 373.468 1.78501C373.788 1.85049 373.803 1.84454 374.113 1.83144C374.274 1.8243 374.434 1.81836 374.594 1.81241C374.754 1.80645 374.88 1.82431 375.021 1.85169C375.307 1.90764 375.331 1.90763 375.52 1.83144C375.632 1.78502 375.71 1.76954 375.85 1.79097C376.316 1.86359 376.321 1.86835 376.719 1.84692C377.049 1.82906 377.359 1.8243 377.602 1.89216C377.767 1.93978 377.82 1.92906 377.951 1.87907C378.3 1.74692 378.46 1.7493 379.115 1.84454C379.421 1.88977 379.737 1.84097 380.047 1.83502C380.309 1.83026 380.493 1.85882 380.513 1.93382C380.527 1.98025 380.571 2.01359 380.746 2.02906C380.814 2.03502 380.896 2.04335 380.964 2.04097C381.367 2.02668 381.765 2.01001 382.167 1.99334C382.371 1.98501 382.483 1.92907 382.444 1.85526C382.4 1.77669 382.478 1.74811 382.769 1.72549C382.943 1.7124 383.084 1.71479 383.225 1.73622C383.38 1.76002 383.337 1.78145 383.201 1.82431C382.876 1.92907 382.914 1.99334 383.332 2.06596C383.477 2.09096 383.594 2.11359 383.628 2.15049C383.647 2.16954 383.628 2.19454 383.671 2.20883C383.909 2.28859 384.239 2.33978 384.608 2.37788C384.962 2.34573 385.204 2.39929 385.476 2.44215C385.69 2.47548 385.942 2.44692 386.17 2.43502C386.427 2.42192 386.641 2.43144 386.825 2.47549C386.956 2.50644 387.092 2.52072 387.252 2.51477C387.572 2.50167 387.897 2.49334 388.212 2.4743C388.484 2.45763 388.688 2.48144 388.858 2.52192C389.071 2.57311 389.309 2.53858 389.532 2.54572C389.833 2.55405 389.983 2.66 390.376 2.63143C390.609 2.61476 390.852 2.60881 391.094 2.60405C391.158 2.60286 391.235 2.6231 391.289 2.63739C391.546 2.70286 391.846 2.69929 392.176 2.68024C392.404 2.66715 392.628 2.65525 392.851 2.70049C393.219 2.77668 393.627 2.84335 394.015 2.91358C394.069 2.96835 394.03 3.03262 394.306 3.06476C394.452 3.08143 394.588 3.10644 394.699 3.13382C394.835 3.16596 394.961 3.17429 395.136 3.16596C395.451 3.1493 395.781 3.14571 396.092 3.12428C396.378 3.10524 396.557 3.14453 396.732 3.18144C396.873 3.2112 397.004 3.22548 397.174 3.20405C397.348 3.18381 397.474 3.1969 397.615 3.22904C397.814 3.27309 397.829 3.26834 398.489 3.28143C398.556 3.28262 398.639 3.30047 398.678 3.31595C398.697 3.32428 398.653 3.3481 398.62 3.36001C398.576 3.37429 398.508 3.39095 398.445 3.39452C397.727 3.42547 397.004 3.45285 396.286 3.48381C396.213 3.48738 396.135 3.49572 396.082 3.50762C396.024 3.52072 395.951 3.53856 395.951 3.55523C395.951 3.56714 396.048 3.58143 396.116 3.58976C396.329 3.61714 396.582 3.57547 396.79 3.60643C396.931 3.62666 397.047 3.65523 397.188 3.67428C397.246 3.68261 397.339 3.68142 397.411 3.67904C397.654 3.67071 397.892 3.65881 398.134 3.65166C398.202 3.65047 398.28 3.66238 398.343 3.67191C398.809 3.74334 398.809 3.74333 399.211 3.72786C399.372 3.7219 399.541 3.70405 399.692 3.71119C399.837 3.71833 399.963 3.75047 400.094 3.77071C400.366 3.81357 400.623 3.85523 400.643 3.94809C400.652 3.9838 400.812 4.01475 400.973 4.01713C401.128 4.01951 401.293 4.00643 401.453 3.99928C401.831 3.985 401.831 3.985 402.321 4.05762C402.457 4.07785 402.603 4.08023 402.777 4.06833C402.845 4.06356 402.928 4.06833 403.001 4.07428C403.238 4.09214 403.238 4.11475 403.083 4.15761C402.865 4.22071 402.884 4.22666 403.495 4.28023C403.728 4.30047 403.908 4.33857 404.102 4.3719C404.417 4.42547 404.412 4.42546 404.204 4.4957C404.155 4.51117 404.112 4.52784 404.063 4.54451C403.922 4.59094 403.811 4.64094 403.52 4.6457C403.199 4.65046 402.879 4.66951 402.559 4.68261C402.249 4.6957 402.166 4.72426 402.195 4.80522C402.229 4.90283 402.292 4.91355 402.85 4.91236C403.01 4.91236 403.151 4.92188 403.272 4.95402C403.214 4.99212 403.107 5.02188 402.952 5.02902C402.554 5.04688 402.152 5.06236 401.754 5.07784C401.434 5.09093 401.113 5.10402 400.793 5.11712C400.594 5.12545 400.468 5.18736 400.521 5.25641C400.55 5.29569 400.575 5.33497 400.599 5.37426C400.652 5.45283 400.754 5.47307 401.079 5.4695C401.162 5.46831 401.239 5.45878 401.317 5.46116C401.632 5.46949 401.783 5.5683 402.161 5.54806C402.477 5.5314 402.807 5.52783 403.117 5.5064C403.403 5.48735 403.563 5.53022 403.762 5.56236C403.83 5.57308 403.903 5.59568 403.961 5.59449C404.364 5.5814 404.767 5.56831 405.16 5.54569C405.344 5.53617 405.456 5.54331 405.601 5.57188C405.95 5.64093 405.96 5.63736 406.479 5.61593C406.858 5.59926 406.863 5.60164 407.348 5.67426C407.484 5.6945 407.629 5.69449 407.804 5.68497C408.032 5.67306 408.27 5.65402 408.507 5.67188C408.58 5.67664 408.672 5.69093 408.697 5.7064C408.711 5.71712 408.643 5.74331 408.585 5.75164C408.158 5.81355 407.658 5.80283 407.193 5.82783C407.047 5.83498 406.901 5.81235 406.78 5.78021C406.654 5.74807 406.518 5.73498 406.353 5.74093C406.033 5.75403 405.708 5.76236 405.393 5.7814C405.121 5.79807 404.932 5.77069 404.742 5.73378C404.679 5.72188 404.607 5.69925 404.543 5.70045C403.825 5.72425 403.103 5.74807 402.389 5.7814C402.103 5.79569 401.938 5.7576 401.744 5.72545C401.676 5.71474 401.608 5.69212 401.545 5.69331C401.303 5.69807 401.065 5.71116 400.822 5.72069C399.939 5.7564 399.061 5.79212 398.178 5.82545C398.12 5.82783 398.047 5.80283 397.979 5.79211C397.848 5.77068 397.712 5.75044 397.576 5.73021C397.334 5.73973 397.096 5.75163 396.853 5.75878C396.679 5.76354 396.523 5.78021 396.499 5.82545C396.485 5.85521 396.645 5.88259 396.815 5.88021C396.98 5.87783 397.145 5.86354 397.28 5.87901C397.955 5.9552 397.955 5.9564 398.377 5.94092C398.746 5.92664 398.707 5.91473 399.032 5.9802C399.173 6.00877 399.299 6.02545 399.459 6.0183C399.857 6.00164 400.259 5.98497 400.662 5.97068C400.725 5.9683 400.808 5.98021 400.871 5.98973C401.346 6.06116 401.346 6.06354 401.739 6.04568C402.253 6.02425 402.273 6.0183 402.617 6.09092C402.855 6.14092 403.073 6.10639 403.301 6.10401C403.563 6.15044 403.85 6.19211 404.087 6.24449C404.369 6.3064 404.665 6.29567 404.985 6.27782C405.223 6.26472 405.456 6.25996 405.65 6.30877C405.834 6.35401 406.057 6.35878 406.309 6.34687C406.537 6.33616 406.77 6.31353 407.008 6.33972C407.071 6.34687 407.168 6.36473 407.163 6.37544C407.159 6.39211 407.095 6.41592 407.032 6.42306C406.586 6.47187 406.096 6.47068 405.625 6.4933C405.562 6.49687 405.48 6.48377 405.417 6.47425C405.281 6.45282 405.15 6.42782 405.019 6.4052C404.781 6.41235 404.539 6.41472 404.306 6.42901C404.126 6.43972 403.99 6.43854 403.859 6.40997C403.738 6.38378 403.607 6.35163 403.462 6.3433C403.316 6.33496 403.146 6.35282 402.986 6.35997C402.826 6.36711 402.642 6.36353 402.515 6.38258C402.389 6.40163 402.312 6.4433 402.229 6.47663C402.137 6.51353 402.011 6.52544 401.826 6.52902C401.657 6.53259 401.521 6.52782 401.395 6.49449C401.341 6.4802 401.268 6.46948 401.196 6.45996C401.128 6.45163 401.05 6.43853 400.987 6.44091C400.264 6.46829 399.546 6.49806 398.823 6.52663C398.464 6.54092 398.469 6.54091 397.722 6.47067C397.654 6.46472 397.572 6.45639 397.504 6.45877C397.101 6.47305 396.703 6.48972 396.3 6.50639C395.893 6.52306 395.898 6.52067 395.204 6.44568C395.078 6.43139 394.893 6.45044 394.743 6.44806C394.428 6.44211 394.272 6.34211 393.904 6.36116C393.588 6.37782 393.258 6.38139 392.943 6.40282C392.657 6.42187 392.492 6.38021 392.298 6.34806C392.23 6.33735 392.157 6.31354 392.099 6.31592C391.376 6.34211 390.658 6.37187 389.697 6.37544C389.459 6.37544 389.566 6.40045 389.721 6.40878C389.945 6.42187 390.017 6.39687 389.896 6.34926C389.809 6.31592 389.683 6.29924 389.581 6.30758C389.527 6.31234 389.459 6.33497 389.697 6.37544C389.949 6.42068 389.935 6.44567 389.979 6.45996C390.085 6.49448 390.236 6.50877 390.391 6.50401C390.634 6.49567 390.871 6.48377 391.114 6.47663C391.182 6.47425 391.264 6.48258 391.327 6.49211C391.861 6.56591 391.866 6.57068 392.434 6.54211C392.613 6.53378 392.744 6.53378 392.885 6.5564C393.079 6.58735 393.22 6.63972 393.515 6.62305C393.908 6.60043 394.311 6.58735 394.714 6.57425C394.777 6.57187 394.845 6.5933 394.918 6.60282C395.117 6.6314 395.262 6.68497 395.558 6.66235C395.786 6.64449 396.034 6.63972 396.276 6.63615C396.339 6.63496 396.436 6.65401 396.465 6.66948C396.523 6.69686 396.451 6.72901 396.286 6.75163C396.218 6.76116 396.126 6.75877 396.048 6.76234C395.728 6.77544 395.408 6.78972 395.087 6.80043C394.918 6.80638 394.758 6.82425 394.738 6.8683C394.724 6.89806 394.898 6.92424 395.063 6.92186C395.306 6.91829 395.548 6.90877 395.781 6.89329C396.194 6.8671 396.553 6.87424 396.887 6.94924C397.125 7.00162 397.111 6.98258 397.363 7.13734C397.426 7.17663 397.615 7.18019 397.78 7.17781C398.178 7.17186 398.362 7.18972 398.328 7.22663C398.285 7.27186 398.144 7.28614 397.964 7.29209C397.644 7.30162 397.324 7.3171 397.004 7.33019C396.926 7.33377 396.839 7.3409 396.766 7.33852C396.693 7.33614 396.625 7.32186 396.562 7.31114C396.427 7.28853 396.31 7.254 396.165 7.24566C396.019 7.23733 395.849 7.25519 395.689 7.26233C395.529 7.26828 395.359 7.28614 395.214 7.27781C395.068 7.26947 394.947 7.23377 394.816 7.21234C394.753 7.20163 394.675 7.18495 394.612 7.18614C394.292 7.19566 393.972 7.21115 393.651 7.22305C393.258 7.23853 393.258 7.23853 392.783 7.16472C392.647 7.14329 392.506 7.14449 392.327 7.15401C391.939 7.17306 391.934 7.16948 391.225 7.10043C391.158 7.09329 391.075 7.08496 391.007 7.08853C390.284 7.11591 389.566 7.14567 388.848 7.17424C388.232 7.19924 388.232 7.19925 387.892 7.31829C387.64 7.40639 387.635 7.40638 387.883 7.44686C388.081 7.48019 388.261 7.529 388.479 7.54685C388.683 7.56352 388.935 7.50995 389.159 7.56471C389.27 7.59209 389.416 7.62186 389.556 7.62662C389.78 7.63257 390.017 7.59804 390.231 7.65042C390.338 7.67661 390.498 7.704 390.634 7.70519C390.871 7.70757 391.114 7.68852 391.352 7.68018C391.424 7.6778 391.507 7.67781 391.575 7.68376C391.648 7.6909 391.711 7.70519 391.774 7.7171C391.968 7.75757 392.176 7.77661 392.429 7.75638C392.841 7.72304 393.21 7.73971 393.53 7.8159C393.574 7.82661 393.68 7.82781 393.748 7.82305C393.923 7.81114 394.073 7.80995 394.204 7.83257C394.258 7.84209 394.335 7.85875 394.326 7.86946C394.311 7.88732 394.253 7.91113 394.19 7.91708C393.734 7.95756 393.244 7.96233 392.773 7.98376C392.71 7.98614 392.633 7.97065 392.569 7.95994C392.434 7.93851 392.317 7.90281 392.172 7.89447C392.026 7.88614 391.856 7.90161 391.696 7.90757C391.536 7.91352 391.366 7.93138 391.221 7.92423C391.075 7.9159 390.939 7.88614 390.823 7.85994C390.687 7.83018 390.556 7.82662 390.376 7.83852C390.144 7.854 389.901 7.85638 389.663 7.86471C389.532 7.84209 389.401 7.81708 389.265 7.79566C389.202 7.78494 389.125 7.77185 389.057 7.77304C388.737 7.78257 388.416 7.79685 388.096 7.80994C387.776 7.82304 387.776 7.82305 387.233 7.74924C387.169 7.74091 387.087 7.73138 387.019 7.73376C386.616 7.74805 386.218 7.76589 385.816 7.78018C385.66 7.78613 385.52 7.76947 385.394 7.73732C385.272 7.70518 385.127 7.68733 384.976 7.69328C384.336 7.71828 383.696 7.74209 383.055 7.77185C382.798 7.78376 382.58 7.77305 382.405 7.73019C382.201 7.68138 381.973 7.69329 381.735 7.70281C381.197 7.72662 381.192 7.72542 380.848 7.66471C380.78 7.6528 380.712 7.63018 380.649 7.63137C380.091 7.64923 379.528 7.6659 378.975 7.69447C378.684 7.70994 378.528 7.66828 378.334 7.63733C378.266 7.62662 378.194 7.60399 378.136 7.60638C377.733 7.61947 377.33 7.63138 376.937 7.65519C376.544 7.679 376.394 7.56829 376.098 7.56948C375.695 7.57067 375.297 7.59805 374.899 7.61472C374.579 7.62781 374.259 7.6409 373.939 7.654C373.618 7.66709 373.298 7.6778 372.978 7.69328C372.808 7.70161 372.682 7.69089 372.541 7.66113C372.362 7.62185 372.148 7.59091 371.954 7.55519C371.658 7.504 371.658 7.504 371.299 7.51828C371.222 7.52185 371.139 7.52423 371.062 7.5278C370.475 7.55399 370.475 7.55162 369.727 7.47662C369.693 7.47305 369.606 7.48615 369.572 7.49567C369.47 7.52662 369.378 7.55995 369.286 7.59209C369.155 7.57304 368.995 7.56233 368.908 7.53495C368.66 7.45757 368.272 7.56352 368.02 7.48733C367.927 7.45876 367.767 7.43376 367.622 7.42662C367.471 7.41947 367.302 7.43614 367.146 7.44328C366.744 7.46114 366.744 7.45995 366.399 7.5659C366.224 7.61828 365.972 7.60876 365.744 7.62066C365.506 7.63376 365.278 7.6409 365.079 7.59209C364.9 7.54804 364.682 7.53733 364.425 7.55162C364.109 7.56948 363.784 7.58019 363.464 7.5909C363.396 7.59328 363.313 7.58733 363.245 7.58019C362.503 7.50995 362.503 7.50877 362.144 7.52424C361.984 7.53138 361.819 7.53376 361.664 7.54447C361.402 7.56352 361.203 7.53852 361.014 7.50042C360.951 7.48852 360.878 7.46591 360.815 7.4671C360.495 7.47305 360.179 7.48377 359.864 7.49448C359.621 7.50281 359.379 7.50757 359.146 7.52424C358.758 7.55162 358.568 7.47423 358.302 7.43852C357.904 7.45399 357.501 7.46471 357.103 7.48614C356.919 7.49566 356.798 7.4921 356.657 7.46353C356.477 7.42781 356.312 7.38734 356.021 7.40519C355.633 7.429 355.226 7.43734 354.828 7.45162C354.561 7.41472 354.367 7.33971 353.984 7.36709C353.751 7.38376 353.503 7.38733 353.266 7.39685C352.945 7.40995 352.625 7.42186 352.305 7.43615C351.96 7.45043 351.965 7.44686 351.436 7.37663C351.131 7.33496 350.815 7.38138 350.505 7.38853C350.262 7.39448 350.141 7.44924 350.199 7.51947C350.257 7.58971 350.126 7.64447 349.903 7.654C349.345 7.67662 348.782 7.70042 348.225 7.72066C348.157 7.72304 348.074 7.7147 348.011 7.70637C347.414 7.63137 347.414 7.63257 347.147 7.64329C346.75 7.66114 346.342 7.67066 345.949 7.69328C345.677 7.70875 345.478 7.68376 345.304 7.64329C345.168 7.61234 345.042 7.60519 344.867 7.61233C342.946 7.69209 341.025 7.7659 339.108 7.84804C338.822 7.85995 338.657 7.82543 338.463 7.79329C338.395 7.78257 338.332 7.75995 338.264 7.75995C338.104 7.75995 337.944 7.77067 337.784 7.77781C337.066 7.80638 336.348 7.8409 335.625 7.86233C335.319 7.87185 335.236 7.92662 335.105 7.97186C335.004 8.00638 334.887 8.02066 334.708 8.02542C334.533 8.03018 334.407 8.02423 334.271 7.99328C334.096 7.9528 333.897 7.9278 333.626 7.94446C333.31 7.96351 332.99 7.97185 332.665 7.98495C332.5 7.9909 332.374 8.01233 332.321 8.05518C332.311 8.06232 332.413 8.08019 332.471 8.0909C332.665 8.12662 332.849 8.16828 333.068 8.19328C333.291 8.21828 333.533 8.1897 333.766 8.18256C333.849 8.18017 333.926 8.17304 334.004 8.17423C334.077 8.17542 334.164 8.18137 334.218 8.19209C334.47 8.24566 334.737 8.28256 335.086 8.25042C335.387 8.2659 335.542 8.3647 335.925 8.33851C336.158 8.32304 336.401 8.3159 336.644 8.30994C336.707 8.30875 336.774 8.33018 336.842 8.3409C337.036 8.37066 337.192 8.41827 337.483 8.39804C337.793 8.37661 338.123 8.37304 338.439 8.35637C338.613 8.34685 338.739 8.35518 338.875 8.38613C339.05 8.42542 339.249 8.45517 339.521 8.43612C339.753 8.41946 340.001 8.41588 340.239 8.40517C340.549 8.39208 340.549 8.39327 341.102 8.46708C341.165 8.47541 341.248 8.48493 341.316 8.48255C341.718 8.46827 342.116 8.45041 342.519 8.43612C342.674 8.43017 342.825 8.44565 342.931 8.48017C342.975 8.49446 342.96 8.51828 342.975 8.53852C342.174 8.57066 341.374 8.59803 340.578 8.63732C340.277 8.6528 340.142 8.60399 339.943 8.5766C339.875 8.56708 339.802 8.54685 339.739 8.54923C339.176 8.56946 338.618 8.59089 338.06 8.61708C337.885 8.62541 337.755 8.62065 337.624 8.58612C337.289 8.49446 336.881 8.54446 336.503 8.55755C336.212 8.56708 336.12 8.60399 336.153 8.68256C336.197 8.77541 336.372 8.80399 336.818 8.78732C336.978 8.78137 337.138 8.77303 337.298 8.76827C337.454 8.76351 337.594 8.77898 337.721 8.81112C337.842 8.84326 337.987 8.85993 338.138 8.85517C338.458 8.84445 338.783 8.83375 339.094 8.81589C339.351 8.8016 339.564 8.81351 339.744 8.85755C339.943 8.90636 340.176 8.89564 340.408 8.88493C340.952 8.86112 340.957 8.86232 341.296 8.92184C341.364 8.93375 341.432 8.95637 341.495 8.95518C342.053 8.93732 342.616 8.92184 343.164 8.89327C343.45 8.87899 343.615 8.91708 343.805 8.94803C343.873 8.95874 343.94 8.98255 344.004 8.98017C344.406 8.96708 344.809 8.95398 345.202 8.93136C345.386 8.92065 345.498 8.92778 345.648 8.95636C346.007 9.02659 346.017 9.02421 346.526 9.00159C346.682 8.99445 346.851 8.98136 346.997 8.99088C347.143 9.00041 347.259 9.03494 347.395 9.05637C347.458 9.06589 347.536 9.07897 347.603 9.07659C347.924 9.06707 348.244 9.05279 348.564 9.0397C348.865 9.0266 348.865 9.02779 349.428 9.1016C349.656 9.13256 349.894 9.10636 350.122 9.09684C350.369 9.08612 350.592 9.08613 350.781 9.13256C350.971 9.17898 351.199 9.17659 351.441 9.16707C351.669 9.15755 351.902 9.13137 352.135 9.16351C352.669 9.23732 352.669 9.23849 352.999 9.22421C353.479 9.20397 353.954 9.18493 354.44 9.16707C354.503 9.16469 354.585 9.17898 354.648 9.1885C354.784 9.20993 354.901 9.24564 355.046 9.25397C355.192 9.26349 355.361 9.24921 355.517 9.24207C356.016 9.21945 356.05 9.21112 356.385 9.28969C356.667 9.35398 357.016 9.26112 357.278 9.33493C357.428 9.37659 357.632 9.40992 357.913 9.38969C358.146 9.37302 358.389 9.36826 358.631 9.35873C359.015 9.34326 359.015 9.34446 359.5 9.41589C359.563 9.42541 359.645 9.4373 359.709 9.43492C360.029 9.4254 360.354 9.41707 360.664 9.39564C361.028 9.37064 361.261 9.41589 361.533 9.45993C361.746 9.49446 361.999 9.46588 362.227 9.45397C362.474 9.44207 362.697 9.44563 362.882 9.49206C363.076 9.53968 363.304 9.53373 363.546 9.52421C363.774 9.51587 364.007 9.48849 364.24 9.52182C364.74 9.59563 364.74 9.59563 365.104 9.58135C365.424 9.56825 365.744 9.55398 366.064 9.54445C366.127 9.54207 366.205 9.55754 366.268 9.56825C366.404 9.58968 366.52 9.6254 366.666 9.63374C366.812 9.64207 366.981 9.62659 367.141 9.62064C367.302 9.61469 367.471 9.59683 367.617 9.60397C367.762 9.61112 367.898 9.64088 368.015 9.66707C368.151 9.69802 368.277 9.70159 368.461 9.68968C368.694 9.67421 368.937 9.67064 369.174 9.66231C369.305 9.68492 369.441 9.70754 369.567 9.73254C369.698 9.75873 369.839 9.75635 370.018 9.74802C370.615 9.71944 370.62 9.72302 371.12 9.79683C371.348 9.83016 371.586 9.80278 371.814 9.79445C372.056 9.78492 372.284 9.78016 372.473 9.82778C372.658 9.87302 372.886 9.87896 373.129 9.86468C373.284 9.85515 373.449 9.84921 373.609 9.84564C373.682 9.84445 373.769 9.84921 373.822 9.85874C374.079 9.90873 374.332 9.95397 374.686 9.92183C374.996 9.93136 375.152 10.029 375.525 10.0099C375.841 9.99326 376.171 9.98968 376.481 9.96825C376.767 9.9492 376.971 9.98254 377.117 10.0242C377.379 10.098 377.747 9.99802 378.009 10.0706C378.16 10.1123 378.354 10.1456 378.645 10.1278C378.965 10.1087 379.067 10.1337 379.159 10.2087C379.213 10.2516 379.203 10.2861 379.106 10.3194C379.009 10.354 378.902 10.348 378.747 10.3087C378.567 10.2647 378.354 10.2563 378.097 10.2659C377.844 10.2754 377.689 10.2135 377.48 10.1897C377.272 10.1647 377.024 10.2064 376.806 10.1742C376.292 10.0992 376.292 10.0992 375.943 10.1135C375.705 10.123 375.457 10.1278 375.224 10.1444C374.948 10.1647 374.768 10.1278 374.579 10.0944C374.511 10.0825 374.443 10.0599 374.385 10.0611C373.827 10.079 373.264 10.0956 372.711 10.1254C372.42 10.1409 372.265 10.098 372.071 10.0683C372.003 10.0575 371.93 10.0361 371.872 10.0385C371.392 10.0552 370.916 10.0766 370.436 10.0968C370.344 10.129 370.242 10.1599 370.154 10.1944C370.062 10.2302 369.936 10.2456 369.752 10.2444C369.446 10.2444 369.145 10.2944 368.84 10.2313C368.524 10.1671 368.5 10.1706 368.194 10.1861C367.806 10.2063 367.394 10.2016 367.03 10.248C366.967 10.2564 366.899 10.279 366.899 10.2956C366.894 10.3063 366.996 10.3218 367.059 10.3313C367.272 10.3599 367.52 10.3183 367.733 10.348C367.874 10.3671 367.991 10.3956 368.131 10.4159C368.189 10.4242 368.277 10.423 368.354 10.4218C368.437 10.4206 368.514 10.4123 368.592 10.4135C368.665 10.4147 368.743 10.4218 368.801 10.4325C369.068 10.4778 369.349 10.5194 369.587 10.573C369.82 10.6254 370.038 10.5897 370.271 10.5873C371.202 10.6706 371.202 10.6718 371.828 10.6456C371.984 10.6397 372.144 10.6325 372.304 10.6337C372.372 10.6337 372.435 10.6551 372.503 10.667C372.697 10.7028 372.881 10.7349 373.153 10.7159C373.386 10.6992 373.633 10.6956 373.871 10.6849C374.191 10.6718 374.191 10.6718 374.734 10.7468C374.87 10.7659 375.016 10.7635 375.19 10.754C375.341 10.7456 375.496 10.7635 375.603 10.798C375.646 10.8123 375.632 10.8361 375.647 10.8563C375.166 10.8754 374.681 10.8885 374.215 10.9171C373.914 10.9349 373.779 10.8837 373.58 10.8563C373.512 10.8468 373.439 10.8266 373.376 10.829C372.9 10.8468 372.425 10.867 371.95 10.8909C371.891 10.8932 371.819 10.9206 371.814 10.9373C371.804 10.9682 371.925 10.998 372.1 10.9968C372.333 10.9956 372.561 10.9754 372.769 11.0242C372.944 11.067 373.162 11.0861 373.42 11.0671C373.575 11.0563 373.74 11.0563 373.895 11.0468C374.308 11.0182 374.681 11.0242 374.991 11.1051C375.229 11.1266 375.462 11.1063 375.69 11.0956C375.86 11.0873 376.025 11.079 376.146 11.1016C376.403 11.1492 376.656 11.1968 377.01 11.1647C377.393 11.198 377.684 11.2682 378.005 11.3254C378.155 11.3528 378.271 11.3682 378.446 11.3504C378.519 11.3432 378.606 11.3432 378.684 11.3397C378.844 11.3337 379.014 11.3159 379.159 11.323C379.305 11.3313 379.426 11.3659 379.557 11.3873C379.62 11.398 379.693 11.4159 379.756 11.4147C379.999 11.4087 380.236 11.3968 380.474 11.3873C380.712 11.379 380.949 11.3706 381.187 11.3623C381.386 11.3932 381.59 11.4242 381.789 11.4551C382.109 11.4421 382.429 11.429 382.745 11.417C383.099 11.4028 383.099 11.404 383.608 11.4778C383.836 11.5111 384.079 11.4897 384.297 11.4742C384.661 11.4492 384.904 11.4944 385.161 11.542C385.214 11.5516 385.311 11.5575 385.374 11.5528C385.627 11.5361 385.845 11.5492 386.029 11.5932C386.16 11.6242 386.291 11.6385 386.451 11.6325C387.009 11.6099 387.567 11.5861 388.125 11.5659C388.193 11.5635 388.271 11.5742 388.334 11.5837C388.829 11.6563 388.833 11.6599 389.197 11.6409C389.522 11.6242 389.823 11.617 390.08 11.6825C390.134 11.6968 390.216 11.717 390.274 11.7159C390.672 11.7039 391.075 11.6909 391.468 11.6706C391.648 11.6611 391.774 11.6647 391.914 11.692C392.094 11.7266 392.254 11.7682 392.55 11.7528C393.37 11.7087 393.375 11.7158 394.345 11.798C394.413 11.8039 394.505 11.7944 394.583 11.7897C394.748 11.7778 394.869 11.7944 395.015 11.8218C395.34 11.8837 395.349 11.8801 395.66 11.867C395.898 11.8563 396.145 11.8539 396.378 11.8361C396.737 11.8099 396.975 11.8563 397.242 11.9004C397.455 11.9349 397.702 11.9063 397.93 11.8956C398.178 11.8837 398.401 11.8873 398.586 11.9325C398.712 11.9635 398.847 11.9801 399.008 11.9742C399.566 11.9528 400.124 11.9289 400.682 11.9075C400.749 11.9051 400.832 11.9147 400.895 11.923C401.448 11.9968 401.448 12.0004 401.996 11.973C402.171 11.9647 402.316 11.9623 402.447 11.9873C402.574 12.0111 402.71 12.0337 402.841 12.0563C403.078 12.048 403.321 12.0456 403.554 12.0313C403.733 12.0206 403.859 12.0254 404 12.0504C404.184 12.0825 404.34 12.1385 404.631 12.1111C404.781 12.098 404.956 12.1016 405.106 12.0897C405.286 12.0742 405.407 12.0837 405.548 12.1147C405.722 12.1516 405.902 12.1896 406.183 12.1706C406.494 12.1492 406.824 12.1456 407.139 12.1289C407.314 12.1194 407.435 12.1289 407.576 12.1599C407.75 12.1992 407.949 12.2242 408.221 12.2087C408.774 12.1789 408.779 12.1849 409.318 12.2599C409.453 12.2789 409.599 12.2766 409.774 12.267C409.924 12.2587 410.079 12.2766 410.186 12.3111C410.288 12.3492 410.278 12.373 410.288 12.3932ZM367.054 1.65645C366.894 1.6624 366.734 1.66954 366.501 1.56597C366.486 1.54812 366.496 1.52669 366.462 1.51122C366.385 1.47907 366.263 1.45646 366.118 1.45289C365.856 1.44812 365.54 1.48859 365.545 1.51954C365.55 1.54573 365.633 1.56835 365.793 1.58978C365.861 1.59811 365.914 1.6124 365.977 1.62192C366.161 1.6493 366.307 1.70288 366.574 1.6755C366.525 1.60169 366.55 1.6386 366.574 1.6755C366.55 1.72074 366.622 1.75288 366.797 1.76598C366.845 1.76955 366.918 1.76716 366.957 1.76002C367.108 1.73383 367.132 1.69812 367.02 1.60408C367.001 1.61955 367.015 1.64692 367.059 1.65407C367.103 1.66121 367.209 1.65526 367.263 1.64693C367.399 1.62431 367.467 1.59455 367.433 1.56955C367.413 1.55645 367.321 1.53979 367.263 1.53979C367.161 1.53979 367.069 1.56597 367.054 1.65645ZM406.285 15.4622C405.931 15.4849 405.524 15.4765 405.169 15.5229C405.106 15.5313 405.043 15.5527 405.038 15.5694C405.034 15.5801 405.131 15.5956 405.189 15.6039C405.32 15.623 405.465 15.617 405.635 15.611C405.892 15.6027 406.043 15.6575 406.242 15.6848C406.305 15.6932 406.387 15.6991 406.455 15.6968C406.848 15.6825 407.236 15.667 407.629 15.6503C407.697 15.6468 407.77 15.6384 407.828 15.6277C408.022 15.5932 408.003 15.5706 407.814 15.5444C407.605 15.5158 407.44 15.4682 407.226 15.4456C406.921 15.4134 406.61 15.4563 406.285 15.4622ZM378.732 16.3313C378.495 16.3408 378.262 16.3503 378.024 16.3598C377.946 16.3634 377.864 16.3646 377.791 16.3694C377.641 16.3777 377.529 16.4027 377.456 16.442C377.568 16.4729 377.704 16.4908 377.854 16.4872C378.092 16.4801 378.325 16.4646 378.562 16.461C378.82 16.4563 378.97 16.5098 379.169 16.5372C379.232 16.5456 379.31 16.5467 379.382 16.5479C379.741 16.5527 379.96 16.4908 379.892 16.4039C379.843 16.336 379.659 16.2956 379.436 16.3039C379.203 16.3122 378.965 16.3218 378.732 16.3313ZM407.945 13.7027C408.003 13.6825 408.066 13.6682 408.095 13.6504C408.182 13.5896 408.148 13.5444 407.988 13.4968C407.794 13.4384 407.556 13.4777 407.338 13.4837C407.285 13.4849 407.226 13.5099 407.197 13.5253C407.178 13.5361 407.178 13.5587 407.207 13.5646C407.445 13.6123 407.697 13.6563 407.945 13.7027ZM365.856 10.1861C365.623 10.1956 365.385 10.2028 365.152 10.2159C365.094 10.2194 365.041 10.2421 365.007 10.2575C364.944 10.2861 365.012 10.3254 365.21 10.329C365.438 10.3337 365.676 10.3135 365.914 10.304C366.215 10.2921 366.394 10.248 366.283 10.2099C366.176 10.173 366.03 10.1659 365.856 10.1861ZM110.465 7.6421C110.621 7.63614 110.781 7.63138 110.936 7.62304C111.082 7.61471 111.193 7.58852 111.266 7.54924C111.145 7.51828 111.009 7.50162 110.858 7.50519C110.621 7.51233 110.388 7.52185 110.155 7.53376C110.009 7.5409 109.869 7.56709 109.835 7.60757C109.801 7.63852 110.126 7.65638 110.465 7.6421ZM345.338 7.45876C345.401 7.46947 345.464 7.4909 345.527 7.4909C345.682 7.4909 345.842 7.48376 345.988 7.47185C346.051 7.46709 346.099 7.44566 346.129 7.429C346.148 7.41828 346.143 7.39924 346.114 7.38972C345.973 7.33258 345.411 7.35281 345.318 7.41829C345.309 7.43019 345.333 7.44566 345.338 7.45876ZM330.031 0.939789C330.045 0.958836 330.05 0.977881 330.069 0.996929C330.108 1.03264 330.215 1.05884 330.37 1.07669C330.491 1.04693 330.555 1.01361 330.55 0.977892C330.545 0.958844 330.53 0.939785 330.511 0.920738C330.472 0.885024 330.365 0.858843 330.21 0.840986C330.089 0.869557 330.031 0.902885 330.031 0.939789ZM419.157 16.5384C419.113 16.5539 419.069 16.5694 419.021 16.5837C419.152 16.6182 419.273 16.6289 419.366 16.6098C419.424 16.5979 419.458 16.5801 419.501 16.5646C419.37 16.5301 419.254 16.5206 419.157 16.5384ZM416.139 16.7003C416.202 16.711 416.26 16.7253 416.328 16.7325C416.44 16.7444 416.542 16.7241 416.619 16.6813C416.556 16.6706 416.498 16.6563 416.43 16.6491C416.319 16.6372 416.217 16.6575 416.139 16.7003ZM418.051 16.4825C418.017 16.511 418.085 16.5348 418.264 16.5551C418.308 16.5396 418.366 16.5253 418.395 16.5087C418.444 16.4813 418.361 16.4563 418.186 16.4372C418.138 16.4515 418.094 16.467 418.051 16.4825ZM407.809 15.1991C407.775 15.2277 407.843 15.2515 408.022 15.2718C408.066 15.2563 408.124 15.242 408.153 15.2253C408.202 15.198 408.119 15.173 407.945 15.1539C407.896 15.1682 407.852 15.1837 407.809 15.1991ZM393.855 6.77544C393.811 6.79091 393.768 6.80639 393.719 6.82067C393.85 6.8552 393.971 6.86591 394.064 6.84686C394.122 6.83496 394.156 6.8171 394.2 6.80162C394.069 6.7671 393.952 6.75758 393.855 6.77544ZM380.489 2.30644C380.605 2.31477 380.702 2.29811 380.785 2.25406C380.721 2.24335 380.663 2.22906 380.595 2.22192C380.484 2.21001 380.382 2.23026 380.304 2.27312C380.367 2.28502 380.43 2.29572 380.489 2.30644ZM373.391 2.02668C373.347 2.04216 373.303 2.05763 373.255 2.07192C373.386 2.10644 373.507 2.11715 373.599 2.09811C373.657 2.0862 373.691 2.06834 373.735 2.05287C373.604 2.01834 373.488 2.01001 373.391 2.02668ZM325.257 0.938597C325.213 0.954073 325.169 0.96955 325.121 0.983835C325.252 1.01836 325.373 1.02907 325.465 1.01002C325.523 0.998118 325.557 0.98026 325.601 0.964784C325.47 0.930261 325.354 0.921931 325.257 0.938597ZM85.5857 10.6242C85.5226 10.6135 85.4596 10.6028 85.4014 10.5909C85.2607 10.623 85.2171 10.6528 85.2947 10.6754C85.3432 10.6897 85.4159 10.698 85.479 10.7087C85.6245 10.6766 85.6585 10.648 85.5857 10.6242Z" fill="#00AD9F"/>
<path d="M19.4471 42.594C18.9901 42.6161 18.5371 42.6439 18.0801 42.6578C17.8376 42.6648 17.7503 42.7147 17.6509 42.7611C17.5714 42.7982 17.48 42.8098 17.333 42.8168C16.0931 42.8736 14.8571 42.934 13.6212 42.9932C13.4662 42.9781 13.3907 42.9537 13.4265 42.9247C13.4464 42.9073 13.4941 42.8829 13.5417 42.8806C14.3882 42.8377 15.2307 42.7936 16.0811 42.7599C16.3235 42.7507 16.3911 42.6996 16.5143 42.6578C16.554 42.6439 16.5859 42.623 16.6375 42.6149C16.6892 42.6056 16.7647 42.6068 16.8323 42.6045C18.1993 42.5383 19.5664 42.4734 20.9335 42.4072C21.0885 42.4223 21.164 42.4467 21.1282 42.4757C21.1083 42.4931 21.0606 42.5174 21.0129 42.5198C20.4884 42.5441 19.9677 42.5685 19.4471 42.594Z" fill="#00AD9F"/>
<path d="M269.931 48.829C269.724 48.8429 269.462 48.8626 269.247 48.7953C269.144 48.7628 269.033 48.7524 268.897 48.7594C268.703 48.771 268.504 48.7802 268.305 48.7872C268.254 48.7884 268.186 48.7756 268.134 48.7652C268.023 48.7443 267.928 48.7095 267.809 48.7002C267.689 48.6909 267.546 48.7164 267.423 48.7106C267.26 48.7025 267.193 48.6712 267.236 48.6422C267.26 48.6259 267.308 48.6027 267.359 48.5992C268.095 48.5563 268.099 48.5563 268.305 48.5981C268.464 48.6306 268.611 48.6665 268.838 48.6468C269.029 48.6306 269.231 48.6271 269.426 48.6166C269.696 48.6027 269.696 48.6039 270.133 48.677C270.245 48.6955 270.364 48.6944 270.507 48.6839C270.63 48.6758 270.749 48.6944 270.849 48.7257C270.785 48.7652 270.694 48.7907 270.57 48.7976C270.372 48.8092 270.177 48.8174 269.931 48.829Z" fill="#00AD9F"/>
<path d="M262.168 48.4687C262.668 48.4445 263.173 48.4237 263.674 48.3959C263.881 48.3844 264.044 48.3971 264.187 48.4364C264.342 48.4792 264.516 48.4757 264.707 48.4676C264.826 48.463 264.942 48.4815 265.021 48.5138C265.053 48.5265 265.045 48.5497 265.057 48.5681C264.62 48.5889 264.179 48.6109 263.738 48.6294C263.686 48.6317 263.622 48.6202 263.575 48.6109C263.467 48.5913 263.376 48.5566 263.261 48.5497C263.014 48.5335 262.768 48.5647 262.518 48.5704C262.398 48.5728 262.283 48.5554 262.204 48.5242C262.172 48.5092 262.18 48.4872 262.168 48.4687Z" fill="#00AD9F"/>
<path d="M81.2675 38.4004C81.7881 38.3748 82.3087 38.3505 82.8293 38.325C82.9842 38.3412 83.0558 38.3644 83.024 38.3934C83.0041 38.4108 82.9564 38.4352 82.9087 38.4375C81.8675 38.4897 80.8264 38.5396 79.7892 38.5895C79.6342 38.5732 79.5627 38.55 79.5944 38.521C79.6143 38.5036 79.662 38.4793 79.7097 38.4769C80.2263 38.4503 80.7469 38.4259 81.2675 38.4004Z" fill="#00AD9F"/>
<path d="M0.858463 44.907C0.623996 44.9093 0.377656 44.9522 0.115371 44.9197C0.0637082 44.9139 -0.00784374 44.8953 -0.00386971 44.8849C0.00407835 44.8675 0.0517744 44.8455 0.103437 44.8385C0.329956 44.8095 0.612139 44.806 0.727386 44.7248C0.783023 44.683 0.886347 44.6691 1.02544 44.661C1.17248 44.6517 1.27577 44.6552 1.39102 44.6795C1.54203 44.7109 1.66922 44.7689 1.90766 44.7387C1.91958 44.7573 1.94733 44.7782 1.93541 44.7956C1.92349 44.813 1.87191 44.8292 1.82422 44.842C1.78051 44.8536 1.72084 44.864 1.6652 44.8675C1.40292 44.8814 1.14062 44.893 0.858463 44.907Z" fill="#00AD9F"/>
<path d="M207.523 44.6739C207.718 44.6646 207.921 44.66 208.111 44.6438C208.262 44.6311 208.358 44.6392 208.477 44.6669C208.68 44.7155 208.691 44.7108 209.188 44.7178C209.244 44.7189 209.311 44.7363 209.343 44.7513C209.363 44.7594 209.335 44.7813 209.311 44.7929C209.276 44.8079 209.224 44.8276 209.176 44.8276C208.862 44.831 208.544 44.8992 208.238 44.8206C208.083 44.7813 207.913 44.7628 207.702 44.7802C207.575 44.7906 207.44 44.7952 207.309 44.7998C207.181 44.8044 207.05 44.7917 206.971 44.7571C206.856 44.7062 206.923 44.6866 207.13 44.69C207.261 44.6923 207.392 44.6796 207.523 44.6739Z" fill="#00AD9F"/>
<path d="M279.526 52.7454C279.776 52.7338 280.027 52.72 280.281 52.7107C280.333 52.7084 280.396 52.7211 280.444 52.7292C280.635 52.7639 280.607 52.8228 280.615 52.8748C280.619 52.9292 280.178 52.9731 279.991 52.9361C279.784 52.8945 279.598 52.8471 279.311 52.8725C279.2 52.8818 279.069 52.861 278.997 52.8275C278.89 52.7789 278.95 52.7593 279.153 52.7627C279.272 52.765 279.399 52.7523 279.526 52.7454Z" fill="#00AD9F"/>
<path d="M153.366 36.807C153.624 36.7943 153.883 36.7746 154.141 36.7735C154.292 36.7723 154.368 36.8104 154.332 36.8382C154.312 36.8555 154.264 36.8798 154.217 36.8821C153.7 36.9098 153.183 36.933 152.667 36.9584C152.516 36.9422 152.44 36.9179 152.476 36.8902C152.496 36.8729 152.544 36.8497 152.591 36.8463C152.85 36.8301 153.108 36.8197 153.366 36.807Z" fill="#00AD9F"/>
<path d="M274.523 48.9333C274.774 48.9217 275.028 48.9044 275.278 48.8986C275.409 48.8963 275.513 48.9228 275.529 48.9529C275.537 48.9668 275.473 48.991 275.421 48.9968C275.064 49.0361 274.678 49.0407 274.305 49.0604C274.185 49.0662 274.058 49.0477 273.987 49.0153C273.879 48.9656 273.939 48.9471 274.142 48.9506C274.269 48.9518 274.396 48.939 274.523 48.9333Z" fill="#00AD9F"/>
<path d="M214.139 44.8322C214.266 44.8265 214.397 44.8114 214.521 44.8161C214.652 44.8218 214.735 44.8554 214.775 44.8889C214.819 44.927 214.815 44.9628 214.775 44.9952C214.711 45.0507 214.648 45.0484 214.501 45.0114C214.274 44.9536 214.258 44.9605 213.809 44.9628C213.758 44.9628 213.694 44.9455 213.654 44.9305C213.595 44.9074 213.627 44.8715 213.766 44.8507C213.869 44.8357 214.012 44.838 214.139 44.8322Z" fill="#00AD9F"/>
<path d="M265.913 48.5502C266.1 48.5409 266.286 48.5259 266.473 48.5259C266.604 48.5248 266.708 48.5513 266.72 48.5802C266.724 48.5941 266.664 48.6172 266.616 48.6242C266.39 48.6554 266.135 48.6577 265.889 48.6681C265.774 48.6727 265.647 48.6542 265.575 48.6218C265.468 48.5733 265.531 48.5513 265.726 48.5583C265.786 48.5606 265.849 48.5536 265.913 48.5502Z" fill="#00AD9F"/>
<path d="M235.891 47.1107C235.612 47.1246 235.35 47.1072 235.37 47.0772C235.398 47.0379 235.513 47.0125 235.632 47.0055C235.823 46.994 236.014 46.9847 236.208 46.9778C236.332 46.9732 236.443 46.9905 236.542 47.0206C236.483 47.0575 236.391 47.0841 236.272 47.0922C236.149 47.1003 236.018 47.1049 235.891 47.1107Z" fill="#00AD9F"/>
<path d="M234.103 46.9625C234.29 46.9533 234.477 46.9383 234.664 46.9383C234.795 46.9371 234.898 46.9637 234.91 46.9926C234.914 47.0065 234.854 47.0296 234.807 47.0365C234.58 47.0677 234.326 47.07 234.079 47.0804C233.964 47.085 233.837 47.0666 233.765 47.0342C233.658 46.9856 233.722 46.9637 233.917 46.9706C233.976 46.9729 234.04 46.966 234.103 46.9625Z" fill="#00AD9F"/>
<path d="M212.315 44.8223C212.502 44.8131 212.689 44.7981 212.876 44.7969C213.007 44.7958 213.11 44.8223 213.122 44.8512C213.126 44.8651 213.066 44.8871 213.019 44.8952C212.792 44.9264 212.538 44.9287 212.291 44.9391C212.176 44.9437 212.049 44.9252 211.977 44.8928C211.87 44.8443 211.934 44.8223 212.128 44.8293C212.188 44.8316 212.252 44.8247 212.315 44.8223Z" fill="#00AD9F"/>
<path d="M210.771 44.7521C210.97 44.7428 211.033 44.7371 211.097 44.7371C211.216 44.7371 211.34 44.7509 211.411 44.7844C211.518 44.833 211.455 44.8469 211.26 44.8492C211.01 44.8515 210.763 44.8758 210.513 44.8804C210.382 44.8827 210.278 44.8549 210.27 44.8261C210.266 44.8122 210.326 44.7879 210.374 44.7833C210.541 44.766 210.723 44.7556 210.771 44.7521Z" fill="#00AD9F"/>
<path d="M232.589 37.8626C232.462 37.8684 232.327 37.8846 232.208 37.8788C232.049 37.8707 231.985 37.8395 232.025 37.8106C232.049 37.7945 232.093 37.7714 232.14 37.7679C232.395 37.7517 232.653 37.7413 232.907 37.7297C233.058 37.7471 233.126 37.7713 233.086 37.8002C233.062 37.8164 233.018 37.8384 232.971 37.843C232.848 37.8546 232.716 37.8569 232.589 37.8626Z" fill="#00AD9F"/>
<path d="M78.344 38.5416C78.4672 38.5404 78.5784 38.5554 78.6738 38.5843C78.6142 38.6213 78.5268 38.6456 78.4076 38.656C78.348 38.6606 78.2804 38.6641 78.2168 38.6652C78.0936 38.6675 77.9823 38.6514 77.887 38.6225C77.9466 38.5855 78.0379 38.5612 78.1532 38.5508C78.2128 38.5462 78.2804 38.545 78.344 38.5416Z" fill="#00AD9F"/>
<path d="M273.934 48.9275C273.93 48.8939 274.173 48.8558 274.391 48.857C274.506 48.8581 274.626 48.8743 274.693 48.9055C274.797 48.9529 274.737 48.9714 274.542 48.9679C274.423 48.9656 274.296 48.9852 274.177 48.9818C274.041 48.9806 273.962 48.9552 273.934 48.9275Z" fill="#00AD9F"/>
<path d="M215.297 44.9716C215.293 44.9589 215.273 44.9439 215.285 44.9323C215.36 44.8688 215.817 44.8491 215.937 44.9046C215.956 44.915 215.964 44.9323 215.949 44.9427C215.925 44.9589 215.881 44.9797 215.833 44.9843C215.71 44.9959 215.583 45.0017 215.456 45.0028C215.4 45.0028 215.348 44.9832 215.297 44.9716Z" fill="#00AD9F"/>
<path d="M2.93536 44.7212C2.46643 44.7455 2.45848 44.7431 2.54194 44.6853C2.61744 44.6333 2.75655 44.6021 2.95923 44.6021C3.01884 44.6021 3.0824 44.5998 3.13406 44.6045C3.1897 44.6102 3.26923 44.6218 3.28115 44.6356C3.30499 44.6622 3.23737 44.6911 3.11815 44.7108C3.06649 44.72 2.99895 44.7177 2.93536 44.7212Z" fill="#00AD9F"/>
<path d="M84.1198 38.3735C83.9807 38.3932 83.8615 38.3863 83.7741 38.3493C83.6866 38.3123 83.8257 38.2684 84.0681 38.258C84.1317 38.2556 84.1993 38.2464 84.2589 38.251C84.3185 38.2545 84.3782 38.2684 84.4139 38.2822C84.4775 38.3053 84.4378 38.3366 84.3106 38.3631C84.2589 38.3735 84.1833 38.3712 84.1198 38.3735Z" fill="#00AD9F"/>
<path d="M273.092 48.8403C273.128 48.8253 273.164 48.8103 273.204 48.7964C273.351 48.816 273.414 48.8391 273.375 48.8657C273.351 48.8819 273.303 48.8958 273.267 48.9108C273.12 48.8912 273.061 48.8669 273.092 48.8403Z" fill="#00AD9F"/>
<path d="M9.21228 58.0511C9.21228 58.0372 9.26792 58.0152 9.31163 58.0106C9.39509 58.0025 9.49837 58.0187 9.5699 58.0511C9.66925 58.0973 9.6097 58.1216 9.42689 58.1088C9.29972 58.0996 9.21228 58.0765 9.21228 58.0511Z" fill="#00AD9F"/>
<path d="M217.179 43.8836C217.231 43.894 217.282 43.9044 217.33 43.916C217.262 43.9587 217.179 43.9772 217.091 43.9657C217.036 43.9587 216.988 43.9449 216.936 43.9344C217.004 43.8917 217.083 43.8755 217.179 43.8836Z" fill="#00AD9F"/>
<path d="M216.238 43.832C216.318 43.8147 216.413 43.824 216.525 43.8575C216.489 43.8725 216.457 43.8898 216.413 43.9014C216.338 43.9199 216.238 43.9106 216.131 43.876C216.163 43.8621 216.199 43.8471 216.238 43.832Z" fill="#00AD9F"/>
<path d="M214.673 43.8816C214.725 43.892 214.777 43.9024 214.824 43.9139C214.757 43.9567 214.677 43.9752 214.586 43.9636C214.53 43.9567 214.483 43.9428 214.431 43.9324C214.499 43.8897 214.578 43.8723 214.673 43.8816Z" fill="#00AD9F"/>
<path d="M213.896 43.8187C213.956 43.8419 213.924 43.8696 213.809 43.9008C213.757 43.8904 213.698 43.8823 213.658 43.8684C213.594 43.8465 213.626 43.8176 213.745 43.7864C213.793 43.7979 213.845 43.8083 213.896 43.8187Z" fill="#00AD9F"/>
</svg>
